<?xml version="1.0" standalone="no"?>
  <!DOCTYPE svg PUBLIC "-//W3C//DTD SVG 1.1//EN" "http://www.w3.org/Graphics/SVG/1.1/DTD/svg11.dtd" >
  <svg>
  <metadata>
  Created by font-carrier
  </metadata>
  <defs>
  <font id="VetrinoRegular" horiz-adv-x="1146" vert-adv-y="1146" >
    <font-face
      
      font-family="Vetrino"
      
      font-weight="400"
      
      font-stretch="normal"
      
      units-per-em="1000"
      
      ascent="857"
      
      descent="-219"
      
    />
      <missing-glyph />

      

      
      <glyph glyph-name="uni21" unicode="&#x21;" d="M121.93 0.02C147.85 0.02 168.86 21.03 168.86 46.95C168.86 72.87 147.85 93.88 121.93 93.88C96.01 93.88 75 72.87 75 46.95C75 21.03 96.01 0.02 121.93 0.02ZM153.21 203.38L168.86 735.23L75 719.59L90.64 187.73Z"  horiz-adv-x="244" vert-adv-y="1000"  />

      
      <glyph glyph-name="uni22" unicode="&#x22;" d="M241.15 735.49C215.23 735.69 194.06 714.83 193.87 688.92C193.67 663.00 214.52 641.83 240.44 641.63C237.13 606.80 221.67 594.64 194.22 594.64L194.22 579C256.79 579 288.08 625.93 288.08 688.50C288.10 700.96 283.16 712.91 274.36 721.72C265.55 730.54 253.61 735.49 241.15 735.49ZM100.28 735.49C74.37 735.69 53.20 714.83 53.00 688.92C52.81 663.00 73.66 641.83 99.57 641.63C96.26 606.80 80.80 594.64 53.36 594.64L53.36 579.00C115.93 579.00 147.21 625.93 147.21 688.50C147.23 700.96 142.29 712.91 133.49 721.72C124.69 730.54 112.74 735.49 100.28 735.49Z"  horiz-adv-x="341" vert-adv-y="1000"  />

      
      <glyph glyph-name="uni23" unicode="&#x23;" d="M768.00 484.95L768.00 547.52L601.80 547.52L627.22 750.87L564.65 750.87L539.23 547.52L335.87 547.52L361.29 750.87L298.72 750.87L273.30 547.52L95.29 547.52L95.29 484.95L265.39 484.95L238.01 265.95L64 265.95L64 203.38L230.19 203.38L204.78 0.02L267.36 0.02L292.76 203.38L496.11 203.38L470.71 0.02L533.28 0.02L558.68 203.38L736.64 203.38L736.64 265.95L566.65 265.95L594.04 484.95ZM504.08 265.95L300.73 265.95L328.11 484.95L531.47 484.95Z"  horiz-adv-x="832" vert-adv-y="1000"  />

      
      <glyph glyph-name="uni24" unicode="&#x24;" d="M680.07 206.51C680.07 348.85 465.84 394.89 382.85 406.73C273.36 422.37 163.86 435.03 163.86 547.52C163.86 649.19 245.20 719.59 367.21 719.59C442.75 719.59 543.39 697.69 601.85 610.09L648.78 671.84C593.28 709.78 492.23 730.68 398.50 734.42L398.50 860.37L304.64 844.73L304.64 733.14C158.64 722.94 70 672.85 70 547.52C70 405.17 273.36 406.73 367.21 391.09C494.44 369.88 586.21 305.05 586.21 203.38C586.21 101.70 517.38 15.66 375.03 15.66C192.01 15.66 110.67 172.09 110.67 172.09L70.00 125.16C70.00 125.16 119.33 25.05 304.64 4.19L304.64-125.12L398.50-109.48L398.50 0.36C586.21 3.82 680.07 50.29 680.07 206.51Z"  horiz-adv-x="749" vert-adv-y="1000"  />

      
      <glyph glyph-name="uni25" unicode="&#x25;" d="M767.92 406.73C654.94 406.73 564.57 338.95 564.57 203.38C564.57 67.81 654.94 0.02 767.92 0.02C880.90 0.02 971.28 67.81 971.28 203.38C971.28 338.95 880.88 406.73 767.92 406.73ZM790.51 11.33C722.72 11.33 632.35 67.81 632.35 203.38C632.35 293.75 654.94 395.43 745.31 395.43C813.10 395.43 903.49 338.95 903.49 203.38C903.49 113.00 880.88 11.33 790.51 11.33ZM470.71 531.87C470.71 667.44 380.32 735.23 267.35 735.23C154.39 735.23 64.00 667.44 64.00 531.87C64.00 396.30 154.37 328.52 267.35 328.52C380.34 328.52 470.71 396.30 470.71 531.87ZM131.78 531.87C131.78 622.25 154.37 723.92 244.75 723.92C312.53 723.92 402.92 667.44 402.92 531.87C402.92 441.50 380.32 339.82 289.94 339.82C222.16 339.82 131.78 396.30 131.78 531.87ZM722.56 735.23L234.51 3.15L312.72 3.15L800.77 735.23Z"  horiz-adv-x="1036" vert-adv-y="1000"  />

      
      <glyph glyph-name="uni26" unicode="&#x26;" d="M735.72 313.07L657.51 375.64C657.51 375.64 651.25 234.63 579.58 129.15C496.49 196.60 399.46 288.08 339.35 387.09C346.20 388.65 353.12 390.09 360.21 391.26C454.07 406.90 579.21 469.47 579.21 563.33C579.21 641.54 532.28 735.40 375.85 735.40C274.18 735.40 188.14 672.83 188.14 563.33C188.14 508.04 217.88 447.53 263.04 387.32C172.64 357.99 63 296.82 63 191.04C63 62.76 164.68 0.19 368.03 0.19C453.27-2.63 536.67 25.37 602.94 79.05C671.02 30.48 719.99 0.19 719.99 0.19L735.64 15.84C735.64 15.84 687.02 46.08 621.76 95.89C680.35 155.44 720.00 231.01 735.72 313.07ZM282.08 563.35C282.08 657.21 300.39 719.78 375.94 719.78C469.79 719.78 485.44 657.21 485.44 563.35C485.44 500.78 454.15 422.57 344.65 406.93C339.96 406.26 334.79 405.38 329.41 404.38C300.42 452.50 284.17 507.21 282.16 563.35ZM368.12 15.86C225.77 15.86 156.94 86.25 156.94 187.93C156.94 265.60 201.47 330.80 279.16 366.75C357.10 270.33 470.90 176.48 563.55 107.82C516.59 48.05 444.18 13.97 368.20 15.86Z"  horiz-adv-x="799" vert-adv-y="1000"  />

      
      <glyph glyph-name="uni28" unicode="&#x28;" d="M167.86 297.23C167.86 536.63 308.64 797.80 308.64 797.80L261.71 782.16C261.71 782.16 74.00 645.46 74.00 297.23C74.00-50.99 261.71-203.33 261.71-203.33L308.64-187.69C308.64-187.69 167.86-51.08 167.86 297.23Z"  horiz-adv-x="338" vert-adv-y="1000"  />

      
      <glyph glyph-name="uni29" unicode="&#x29;" d="M70.93 797.80L24 782.16C24 782.16 164.78 645.46 164.78 297.23C164.78 57.84 24-203.33 24-203.33L70.93-187.69C70.93-187.69 258.64-50.99 258.64 297.23C258.64 645.46 70.93 797.80 70.93 797.80Z"  horiz-adv-x="333" vert-adv-y="1000"  />

      
      <glyph glyph-name="uni2a" unicode="&#x2a;" d="M456.16 655.49L382.12 721.11L292.77 658.10L303.51 797.80L209.65 766.51L219.54 657.60L103.93 736.75L84.09 639.85L183.37 593.96L57 533.40L131.02 467.78L220.39 530.79L209.65 391.09L303.51 422.37L293.60 531.29L409.23 452.14L429.05 549.04L329.79 594.92Z"  horiz-adv-x="515" vert-adv-y="1000"  />

      
      <glyph glyph-name="uni2b" unicode="&#x2b;" d="M524.28 406.73L320.93 406.73L320.93 610.09L258.36 610.09L258.36 406.73L55.00 406.73L55.00 344.16L258.36 344.16L258.36 140.81L320.93 140.81L320.93 344.16L524.28 344.16Z"  horiz-adv-x="580" vert-adv-y="1000"  />

      
      <glyph glyph-name="uni2c" unicode="&#x2c;" d="M94.28 93.88C68.37 94.07 47.20 73.22 47.00 47.30C46.81 21.39 67.66 0.22 93.57 0.02C90.26-34.81 74.80-46.97 47.36-46.97L47.36-62.61C109.93-62.61 141.21-15.68 141.21 46.89C141.23 59.34 136.29 71.30 127.49 80.11C118.69 88.93 106.74 93.88 94.28 93.88Z"  horiz-adv-x="189" vert-adv-y="1000"  />

      
      <glyph glyph-name="uni2d" unicode="&#x2d;" d="M324.57 269.95L324.57 332.52L43 332.52L43 269.95Z"  horiz-adv-x="368" vert-adv-y="1000"  />

      
      <glyph glyph-name="uni2e" unicode="&#x2e;" d="M92.93 0.02C118.85 0.02 139.86 21.03 139.86 46.95C139.86 72.87 118.85 93.88 92.93 93.88C67.01 93.88 46 72.87 46 46.95C46 21.03 67.01 0.02 92.93 0.02Z"  horiz-adv-x="186" vert-adv-y="1000"  />

      
      <glyph glyph-name="uni2f" unicode="&#x2f;" d="M388.42 891.66L13-109.48L106.86-93.83L482.28 907.30Z"  horiz-adv-x="471" vert-adv-y="1000"  />

      
      <glyph glyph-name="uni30" unicode="&#x30;" d="M399.50 735.23C211.78 735.23 71 625.73 71 375.45C71 125.16 196.14 0.02 399.50 0.02C587.21 0.02 727.99 125.16 727.99 375.45C727.99 625.73 602.94 735.23 399.50 735.23ZM430.78 15.66C290.00 15.66 164.86 125.16 164.86 375.45C164.86 547.52 211.78 719.59 368.21 719.59C509.00 719.59 634.14 625.73 634.14 375.45C634.22 203.38 602.94 15.66 430.78 15.66Z"  horiz-adv-x="799" vert-adv-y="1000"  />

      
      <glyph glyph-name="uni31" unicode="&#x31;" d="M167.49 719.59L167.49 713.93L58 622.06L68.05 610.09L167.49 693.51L167.49 0.02L261.35 15.66L261.35 735.23Z"  horiz-adv-x="342" vert-adv-y="1000"  />

      
      <glyph glyph-name="uni32" unicode="&#x32;" d="M481.35 31.29L121.57 31.29C121.57 31.29 575.21 219.00 575.21 516.21C575.21 672.64 451.97 735.21 293.64 735.21C121.57 735.21 69.87 635.26 69.87 635.26L90.29 594.42C90.29 594.42 141.99 719.56 278.00 719.56C395.48 719.56 481.35 672.64 481.35 516.21C481.35 165.54 59.00 31.29 59.00 31.29L59.00 15.64L481.35 15.64L481.35 0.00L575.21 15.64L575.21 109.50L481.35 93.86Z"  horiz-adv-x="649" vert-adv-y="1000"  />

      
      <glyph glyph-name="uni33" unicode="&#x33;" d="M354.13 469.30C304.14 469.68 254.19 466.68 204.60 460.31L569.18 703.94L573.13 703.94L573.13 719.59L244.63 719.59L244.63 735.23L150.77 719.59L150.77 625.73L244.63 641.37L244.63 703.94L541.03 703.94L166.50 453.66L166.50 438.02C228.31 450.08 291.26 455.33 354.21 453.66C495.00 453.66 557.57 369.04 557.57 234.66C557.57 132.46 481.25 15.66 322.93 15.66C230.41 18.49 142.52 56.76 77.42 122.56L57 81.72C57 81.72 134.17 0.02 322.93 0.02C501.67 0.02 667.07 71.29 667.07 234.66C667.07 398.03 526.28 469.30 354.13 469.30Z"  horiz-adv-x="734" vert-adv-y="1000"  />

      
      <glyph glyph-name="uni34" unicode="&#x34;" d="M583.85 234.66L552.57 234.66L552.57 563.16L458.71 547.52L458.71 234.66L83.66 234.66C283.05 341.03 399.23 606.06 458.71 829.08L380.50 876.01C349.21 625.73 224.07 328.52 52.00 234.66L52.00 219.02L458.71 219.02L458.71 0.02L552.57 15.66L552.57 219.02L583.85 219.02Z"  horiz-adv-x="654" vert-adv-y="1000"  />

      
      <glyph glyph-name="uni35" unicode="&#x35;" d="M325.93 469.30C263.91 470.62 201.92 465.59 140.92 454.29L182.53 703.94L482.35 703.94L482.35 625.73L576.21 641.37L576.21 735.23L482.35 719.59L169.50 719.59L122.57 438.02L138.21 438.02C200.02 450.08 262.97 455.33 325.93 453.66C466.71 453.66 560.57 369.04 560.57 234.66C560.57 132.46 484.25 15.66 325.93 15.66C233.41 18.49 145.52 56.76 80.42 122.56L60.00 81.72C60.00 81.72 137.17 0.02 325.93 0.02C504.67 0.02 670.07 71.29 670.07 234.66C670.07 398.03 498.08 469.30 325.93 469.30Z"  horiz-adv-x="737" vert-adv-y="1000"  />

      
      <glyph glyph-name="uni36" unicode="&#x36;" d="M399.50 469.30C305.64 469.30 222.32 427.11 165.44 398.06C172.51 648.34 251.89 719.59 430.78 719.59C649.78 719.59 649.78 610.09 649.78 610.09L681.07 657.02C681.07 657.02 634.14 735.23 430.78 735.23C258.71 735.23 71.00 641.37 71.00 359.80C71.00 93.88 211.79 0.02 399.50 0.02C582.00 0.02 712.35 78.24 712.35 234.66C712.35 391.09 581.91 469.30 399.50 469.30ZM430.78 15.66C305.64 15.66 164.86 62.59 164.86 359.80C164.86 361.33 164.86 362.74 164.86 364.25C222.15 423.35 301.57 455.77 383.86 453.66C493.35 453.66 618.50 391.09 618.50 234.66C618.50 130.38 576.78 15.66 430.78 15.66Z"  horiz-adv-x="783" vert-adv-y="1000"  />

      
      <glyph glyph-name="uni37" unicode="&#x37;" d="M633.78 719.59L148.86 719.59L148.86 735.23L55 719.59L55 625.73L148.86 641.37L148.86 703.94L532.27 703.94L302.84 234.66L164.50 234.66L164.50 219.02L295.19 219.02L195.78 15.66L289.64 0.02L394.36 219.02L446.07 219.02L446.07 234.66L401.85 234.66Z"  horiz-adv-x="684" vert-adv-y="1000"  />

      
      <glyph glyph-name="uni38" unicode="&#x38;" d="M464.37 448.28C540.08 467.43 597.85 513.48 597.85 586.62C597.85 685.69 491.81 735.23 378.85 735.23C265.89 735.23 159.86 685.69 159.86 586.62C159.86 511.54 220.61 465.09 299.12 446.88C164.09 425.46 66.00 352.23 66.00 226.86C66.00 75.65 208.52 0.04 386.68 0.04C564.84 0.04 707.35 75.65 707.35 226.86C707.43 355.26 604.48 428.92 464.37 448.28ZM238.13 586.62C238.13 652.68 265.93 719.59 356.31 719.59C424.09 719.59 519.70 685.69 519.70 586.62C519.70 520.57 491.88 453.66 401.50 453.66C333.74 453.66 238.15 487.55 238.15 586.62ZM422.36 15.66C315.47 15.66 159.92 75.63 159.92 226.84C159.92 327.64 208.58 438.02 351.09 438.02C457.99 438.02 613.56 378.05 613.56 226.84C613.58 126.04 564.90 15.66 422.38 15.66Z"  horiz-adv-x="773" vert-adv-y="1000"  />

      
      <glyph glyph-name="uni39" unicode="&#x39;" d="M382.85 735.23C200.36 735.23 70 657.02 70 500.59C70 344.16 200.36 265.95 382.85 265.95C476.71 265.95 560.01 308.14 616.91 337.17C609.82 86.89 530.44 15.66 351.57 15.66C132.57 15.66 132.57 125.16 132.57 125.16L101.29 78.24C101.29 78.24 148.21 0.02 351.57 0.02C523.64 0.02 711.35 93.88 711.35 375.45C711.27 641.37 570.57 735.23 382.85 735.23ZM398.50 281.59C289.00 281.59 163.86 344.16 163.86 500.59C163.86 604.87 205.57 719.59 351.57 719.59C476.71 719.59 617.49 672.66 617.49 375.45C617.49 373.92 617.49 372.51 617.49 371.00C560.18 311.88 480.73 279.46 398.41 281.59Z"  horiz-adv-x="783" vert-adv-y="1000"  />

      
      <glyph glyph-name="uni3a" unicode="&#x3a;" d="M101.93 0.02C127.85 0.02 148.86 21.03 148.86 46.95C148.86 72.87 127.85 93.88 101.93 93.88C76.01 93.88 55 72.87 55 46.95C55 21.03 76.01 0.02 101.93 0.02ZM101.93 469.30C127.85 469.30 148.86 490.31 148.86 516.23C148.86 542.15 127.85 563.16 101.93 563.16C76.01 563.16 55 542.15 55 516.23C55 490.31 76.01 469.30 101.93 469.30Z"  horiz-adv-x="204" vert-adv-y="1000"  />

      
      <glyph glyph-name="uni3b" unicode="&#x3b;" d="M103.28 469.30C129.20 469.30 150.21 490.31 150.21 516.23C150.21 542.15 129.20 563.16 103.28 563.16C77.37 563.16 56.36 542.15 56.36 516.23C56.36 490.31 77.37 469.30 103.28 469.30ZM103.28 93.88C77.37 94.07 56.20 73.22 56.00 47.30C55.81 21.39 76.66 0.22 102.57 0.02C99.26-34.81 83.80-46.97 56.36-46.97L56.36-62.61C118.93-62.61 150.21-15.68 150.21 46.89C150.23 59.34 145.29 71.30 136.49 80.11C127.69 88.93 115.74 93.88 103.28 93.88Z"  horiz-adv-x="207" vert-adv-y="1000"  />

      
      <glyph glyph-name="uni3c" unicode="&#x3c;" d="M528.28 578.80L59 422.37L59 328.52L528.28 172.09L528.28 234.66L152.86 375.45L528.28 516.23Z"  horiz-adv-x="590" vert-adv-y="1000"  />

      
      <glyph glyph-name="uni3d" unicode="&#x3d;" d="M520.28 219.02L520.28 281.59L51 281.59L51 219.02ZM520.28 469.30L520.28 531.87L51 531.87L51 469.30Z"  horiz-adv-x="572" vert-adv-y="1000"  />

      
      <glyph glyph-name="uni3e" unicode="&#x3e;" d="M61 578.80L61 516.23L436.42 375.45L61 234.66L61 172.09L530.28 328.52L530.28 422.37Z"  horiz-adv-x="590" vert-adv-y="1000"  />

      
      <glyph glyph-name="uni3f" unicode="&#x3f;" d="M292.50 0.02C318.42 0.02 339.43 21.03 339.43 46.95C339.43 72.87 318.42 93.88 292.50 93.88C266.58 93.88 245.57 72.87 245.57 46.95C245.57 21.03 266.58 0.02 292.50 0.02ZM276.77 735.23C104.70 735.23 53 635.28 53 635.28L73.42 594.44C73.42 594.44 125.12 719.59 261.13 719.59C378.62 719.59 464.49 672.66 464.49 516.23C464.49 328.52 261.13 344.16 261.13 187.73L323.70 203.38C323.70 391.09 558.34 344.16 558.34 516.23C558.34 672.66 435.29 735.23 276.77 735.23Z"  horiz-adv-x="622" vert-adv-y="1000"  />

      
      <glyph glyph-name="uni40" unicode="&#x40;" d="M572.57 766.51C301.43 766.51 72.00 619.74 72.00 284.26C72.00-51.22 301.43-218.98 572.57-218.98C656.08-219.93 738.74-202.20 814.51-167.06L802.20-136.32C745.59-180.50 675.65-204.13 603.85-203.33C416.14-203.33 165.86-51.24 165.86 284.26C165.86 514.90 280.57 750.87 530.85 750.87C718.56 750.87 979.28 619.74 979.28 284.26C979.28 278.17 979.18 272.07 978.98 265.95C978.98 109.52 947.99 15.66 901.06 15.66C854.13 15.66 838.49 109.52 838.49 344.16L838.49 563.16L744.64 547.52L744.64 502.47C690.91 543.68 624.61 565.11 556.92 563.16C400.50 563.16 275.36 469.30 275.36 281.59C275.36 93.88 400.50 0.02 556.92 0.02C645.88 0.02 724.63 30.47 776.09 91.19C799.49 35.17 835.82 0.02 885.42 0.02C979.28 0.02 1072.88 62.59 1072.88 265.95C1073.03 272.00 1073.13 278.09 1073.13 284.26C1073.13 619.74 843.71 766.51 572.57 766.51ZM588.21 15.66C494.35 15.66 369.21 93.88 369.21 281.59C369.21 406.73 400.50 547.52 525.64 547.52C609.04 543.40 687.57 507.02 744.64 446.07L744.64 281.59C743.96 230.16 750.15 178.87 763.05 129.08C723.86 64.01 661.52 15.66 588.29 15.66Z"  horiz-adv-x="1145" vert-adv-y="1000"  />

      
      <glyph glyph-name="uni41" unicode="&#x41;" d="M614.55-0.71L691.72 55.73L382.23 737.56L318.41 690.91L305.00 681L309.56 670.99L13.00 4.92L27.29-1.46L111.63 187.96C247.51 190.40 366.19 243.80 500.88 249.70ZM118.66 203.69L318.24 651.95L493.94 264.90C364.42 257.77 249.29 207.82 118.66 203.79Z"  horiz-adv-x="710" vert-adv-y="1000"  />

      
      <glyph glyph-name="unic0" unicode="&#xc0;" d="M614.55-0.71L691.72 55.73L382.23 737.56L318.41 690.91L305.00 681L309.56 670.99L13.00 4.92L27.29-1.46L111.63 187.96C247.51 190.40 366.19 243.80 500.88 249.70ZM118.66 203.69L318.24 651.95L493.94 264.90C364.42 257.77 249.29 207.82 118.66 203.79Z"  horiz-adv-x="710" vert-adv-y="1000"  />

      
      <glyph glyph-name="unic1" unicode="&#xc1;" d="M614.55-0.71L691.72 55.73L382.23 737.56L318.41 690.91L305.00 681L309.56 670.99L13.00 4.92L27.29-1.46L111.63 187.96C247.51 190.40 366.19 243.80 500.88 249.70ZM118.66 203.69L318.24 651.95L493.94 264.90C364.42 257.77 249.29 207.82 118.66 203.79Z"  horiz-adv-x="710" vert-adv-y="1000"  />

      
      <glyph glyph-name="unic3" unicode="&#xc3;" d="M614.55-0.71L691.72 55.73L382.23 737.56L318.41 690.91L305.00 681L309.56 670.99L13.00 4.92L27.29-1.46L111.63 187.96C247.51 190.40 366.19 243.80 500.88 249.70ZM118.66 203.69L318.24 651.95L493.94 264.90C364.42 257.77 249.29 207.82 118.66 203.79Z"  horiz-adv-x="710" vert-adv-y="1000"  />

      
      <glyph glyph-name="unic4" unicode="&#xc4;" d="M614.55-0.71L691.72 55.73L382.23 737.56L318.41 690.91L305.00 681L309.56 670.99L13.00 4.92L27.29-1.46L111.63 187.96C247.51 190.40 366.19 243.80 500.88 249.70ZM118.66 203.69L318.24 651.95L493.94 264.90C364.42 257.77 249.29 207.82 118.66 203.79Z"  horiz-adv-x="710" vert-adv-y="1000"  />

      
      <glyph glyph-name="unic5" unicode="&#xc5;" d="M614.55-0.71L691.72 55.73L382.23 737.56L318.41 690.91L305.00 681L309.56 670.99L13.00 4.92L27.29-1.46L111.63 187.96C247.51 190.40 366.19 243.80 500.88 249.70ZM118.66 203.69L318.24 651.95L493.94 264.90C364.42 257.77 249.29 207.82 118.66 203.79Z"  horiz-adv-x="710" vert-adv-y="1000"  />

      
      <glyph glyph-name="uni42" unicode="&#x42;" d="M585.07 426.42C636.90 438.00 689.07 477.14 689.07 574.34C689.07 695.02 561.23 735.23 438.78 735.23L172.86 735.23L79.00 719.59L79.00 0.02L172.86 15.66C172.86 15.66 296.58 0.02 376.21 0.02C635.00 0.02 751.64 59.76 751.64 219.02C751.64 338.95 679.93 402.33 585.07 426.42ZM423.14 719.59C503.58 719.59 595.21 679.37 595.21 578.80C595.21 498.36 550.51 438.02 470.07 438.02L472.15 437.62C358.34 433.87 282.94 385.02 172.96 376.76L172.96 719.59ZM391.85 15.66C312.22 15.66 172.86 31.31 172.86 31.31L172.86 361.12C287.21 369.71 364.03 422.37 485.71 422.37C578.65 415.16 657.78 343.12 657.78 219.02C657.78 119.49 590.91 15.66 391.85 15.66Z"  horiz-adv-x="796" vert-adv-y="1000"  />

      
      <glyph glyph-name="uni43" unicode="&#x43;" d="M672.71 156.45C631.83 72.21 547.31 17.88 453.71 15.66C312.93 15.66 140.86 125.16 140.86 375.45C140.86 547.52 203.43 719.59 391.14 719.59C483.39 718.61 570.27 675.99 627.49 603.62L654.60 666.92C586.13 713.13 505.02 736.99 422.42 735.23C219.07 735.23 47.00 625.73 47.00 375.45C47.00 125.16 219.07 0.02 422.42 0.02C525.57-3.43 625.70 35.18 699.82 107.00Z"  horiz-adv-x="726" vert-adv-y="1000"  />

      
      <glyph glyph-name="uni44" unicode="&#x44;" d="M329.28 735.23L172.86 735.23L79.00 719.59L79.00 0.02L172.86 15.66C172.86 15.66 289.51 0.02 344.93 0.02C548.28 0.02 704.71 125.16 704.71 375.45C704.71 625.73 532.64 735.23 329.28 735.23ZM360.57 15.66C298.25 15.66 172.86 31.31 172.86 31.31L172.86 719.59L298.00 719.59C438.78 719.59 610.85 625.73 610.85 375.45C610.85 203.38 548.28 15.66 360.57 15.66Z"  horiz-adv-x="753" vert-adv-y="1000"  />

      
      <glyph glyph-name="uni45" unicode="&#x45;" d="M470.07 719.59L172.86 719.59L172.86 735.23L79.00 719.59L79.00 0.02L172.86 15.66L470.07 15.66L470.07 0.02L563.92 15.66L563.92 78.24L470.07 62.59L470.07 31.31L172.86 31.31L172.86 360.37C270.26 366.08 355.67 422.37 454.42 422.37L454.42 438.02C355.67 438.02 270.26 381.70 172.86 376.01L172.86 703.94L470.07 703.94L470.07 625.73L563.92 641.37L563.92 735.23Z"  horiz-adv-x="596" vert-adv-y="1000"  />

      
      <glyph glyph-name="unic8" unicode="&#xc8;" d="M470.07 719.59L172.86 719.59L172.86 735.23L79.00 719.59L79.00 0.02L172.86 15.66L470.07 15.66L470.07 0.02L563.92 15.66L563.92 78.24L470.07 62.59L470.07 31.31L172.86 31.31L172.86 360.37C270.26 366.08 355.67 422.37 454.42 422.37L454.42 438.02C355.67 438.02 270.26 381.70 172.86 376.01L172.86 703.94L470.07 703.94L470.07 625.73L563.92 641.37L563.92 735.23Z"  horiz-adv-x="596" vert-adv-y="1000"  />

      
      <glyph glyph-name="unic9" unicode="&#xc9;" d="M470.07 719.59L172.86 719.59L172.86 735.23L79.00 719.59L79.00 0.02L172.86 15.66L470.07 15.66L470.07 0.02L563.92 15.66L563.92 78.24L470.07 62.59L470.07 31.31L172.86 31.31L172.86 360.37C270.26 366.08 355.67 422.37 454.42 422.37L454.42 438.02C355.67 438.02 270.26 381.70 172.86 376.01L172.86 703.94L470.07 703.94L470.07 625.73L563.92 641.37L563.92 735.23Z"  horiz-adv-x="596" vert-adv-y="1000"  />

      
      <glyph glyph-name="unicb" unicode="&#xcb;" d="M470.07 719.59L172.86 719.59L172.86 735.23L79.00 719.59L79.00 0.02L172.86 15.66L470.07 15.66L470.07 0.02L563.92 15.66L563.92 78.24L470.07 62.59L470.07 31.31L172.86 31.31L172.86 360.37C270.26 366.08 355.67 422.37 454.42 422.37L454.42 438.02C355.67 438.02 270.26 381.70 172.86 376.01L172.86 703.94L470.07 703.94L470.07 625.73L563.92 641.37L563.92 735.23Z"  horiz-adv-x="596" vert-adv-y="1000"  />

      
      <glyph glyph-name="uni46" unicode="&#x46;" d="M470.07 719.59L172.86 719.59L172.86 735.23L79.00 719.59L79.00 0.02L172.86 15.66L172.86 360.37C270.26 366.08 355.67 422.37 454.42 422.37L454.42 438.02C355.67 438.02 270.26 381.70 172.86 376.01L172.86 703.94L470.07 703.94L470.07 657.02L563.92 672.66L563.92 735.23Z"  horiz-adv-x="577" vert-adv-y="1000"  />

      
      <glyph glyph-name="uni47" unicode="&#x47;" d="M699.82 219.02C699.82 328.52 605.97 359.80 512.11 359.80L527.75 344.16C559.04 344.16 605.97 328.52 605.97 219.02L605.97 72.44C563.67 35.86 509.63 15.71 453.71 15.66C312.93 15.66 140.86 125.16 140.86 375.45C140.86 547.52 203.43 719.59 391.14 719.59C483.40 718.62 570.27 675.99 627.49 603.62L654.60 666.92C586.12 713.12 505.01 736.99 422.42 735.23C219.07 735.23 47.00 625.73 47.00 375.45C47.00 125.16 219.07 0.02 422.42 0.02C525.57-3.43 625.70 35.18 699.82 107.00L698.80 108.85L699.82 109.52Z"  horiz-adv-x="743" vert-adv-y="1000"  />

      
      <glyph glyph-name="uni48" unicode="&#x48;" d="M595.21 719.59L595.21 438.02C447.40 438.02 320.67 375.45 172.86 375.45L172.86 735.23L79 719.59L79 0.02L172.86 15.66L172.86 359.80C320.67 359.80 447.40 422.37 595.21 422.37L595.21 0.02L689.07 15.66L689.07 735.23Z"  horiz-adv-x="769" vert-adv-y="1000"  />

      
      <glyph glyph-name="uni49" unicode="&#x49;" d="M79 719.59L79 0.02L172.86 15.66L172.86 735.23Z"  horiz-adv-x="252" vert-adv-y="1000"  />

      
      <glyph glyph-name="unicc" unicode="&#xcc;" d="M79 719.59L79 0.02L172.86 15.66L172.86 735.23Z"  horiz-adv-x="252" vert-adv-y="1000"  />

      
      <glyph glyph-name="unicd" unicode="&#xcd;" d="M79 719.59L79 0.02L172.86 15.66L172.86 735.23Z"  horiz-adv-x="252" vert-adv-y="1000"  />

      
      <glyph glyph-name="unice" unicode="&#xce;" d="M79 719.59L79 0.02L172.86 15.66L172.86 735.23Z"  horiz-adv-x="252" vert-adv-y="1000"  />

      
      <glyph glyph-name="unicf" unicode="&#xcf;" d="M79 719.59L79 0.02L172.86 15.66L172.86 735.23Z"  horiz-adv-x="252" vert-adv-y="1000"  />

      
      <glyph glyph-name="uni4a" unicode="&#x4a;" d="M170.43 719.59L170.43 187.73C170.43 78.24 154.78 15.66 92.21 15.66C60.93 15.66 45.29 62.59 45.29 62.59L14 31.31C35.42 11.74 63.21 0.63 92.21 0.02C201.71 0.02 264.28 62.59 264.28 203.38L264.28 735.23Z"  horiz-adv-x="340" vert-adv-y="1000"  />

      
      <glyph glyph-name="uni4b" unicode="&#x4b;" d="M278.02 422.00L637.03 723.26L626.95 735.23L172.86 354.19L172.86 735.23L79.00 719.59L79.00 0.02L172.86 15.66L172.86 333.77L259.41 406.40C487.48 399.35 563.92 108.14 563.92 0.02L626.49 15.66C626.49 154.30 520.23 414.03 278.02 422.00Z"  horiz-adv-x="667" vert-adv-y="1000"  />

      
      <glyph glyph-name="uni4c" unicode="&#x4c;" d="M470.07 62.59L470.07 31.31L172.86 31.31L172.86 735.23L79.00 719.59L79.00 0.02L172.86 15.66L470.07 15.66L470.07 0.02L563.92 15.66L563.92 78.24Z"  horiz-adv-x="576" vert-adv-y="1000"  />

      
      <glyph glyph-name="uni4d" unicode="&#x4d;" d="M720.35 719.59L720.35 715.58L447.06 242.23L172.86 717.19L172.86 735.23L79 719.59L79 0.02L172.86 15.66L172.86 654.62L438.64 194.26L465.73 209.91L456.11 226.59L720.35 684.30L720.35 0.02L814.21 15.66L814.21 735.23Z"  horiz-adv-x="894" vert-adv-y="1000"  />

      
      <glyph glyph-name="uni4e" unicode="&#x4e;" d="M595.21 719.59L595.21 43.72L172.86 586.85L172.86 735.23L79 719.59L79 0.02L172.86 15.66L172.86 561.39L595.21 18.23L595.21 0.02L689.07 15.66L689.07 735.23Z"  horiz-adv-x="769" vert-adv-y="1000"  />

      
      <glyph glyph-name="unid1" unicode="&#xd1;" d="M595.21 719.59L595.21 43.72L172.86 586.85L172.86 735.23L79 719.59L79 0.02L172.86 15.66L172.86 561.39L595.21 18.23L595.21 0.02L689.07 15.66L689.07 735.23Z"  horiz-adv-x="769" vert-adv-y="1000"  />

      
      <glyph glyph-name="uni4f" unicode="&#x4f;" d="M422.42 735.23C219.07 735.23 47 625.73 47 375.45C47 125.16 219.07 0.02 422.42 0.02C625.78 0.02 797.85 125.16 797.85 375.45C797.85 625.73 625.78 735.23 422.42 735.23ZM453.71 15.66C312.93 15.66 140.86 125.16 140.86 375.45C140.86 547.52 203.43 719.59 391.14 719.59C531.92 719.59 703.99 625.73 703.99 375.45C703.99 203.38 641.42 15.66 453.71 15.66Z"  horiz-adv-x="845" vert-adv-y="1000"  />

      
      <glyph glyph-name="unid2" unicode="&#xd2;" d="M422.42 735.23C219.07 735.23 47 625.73 47 375.45C47 125.16 219.07 0.02 422.42 0.02C625.78 0.02 797.85 125.16 797.85 375.45C797.85 625.73 625.78 735.23 422.42 735.23ZM453.71 15.66C312.93 15.66 140.86 125.16 140.86 375.45C140.86 547.52 203.43 719.59 391.14 719.59C531.92 719.59 703.99 625.73 703.99 375.45C703.99 203.38 641.42 15.66 453.71 15.66Z"  horiz-adv-x="845" vert-adv-y="1000"  />

      
      <glyph glyph-name="unid3" unicode="&#xd3;" d="M422.42 735.23C219.07 735.23 47 625.73 47 375.45C47 125.16 219.07 0.02 422.42 0.02C625.78 0.02 797.85 125.16 797.85 375.45C797.85 625.73 625.78 735.23 422.42 735.23ZM453.71 15.66C312.93 15.66 140.86 125.16 140.86 375.45C140.86 547.52 203.43 719.59 391.14 719.59C531.92 719.59 703.99 625.73 703.99 375.45C703.99 203.38 641.42 15.66 453.71 15.66Z"  horiz-adv-x="845" vert-adv-y="1000"  />

      
      <glyph glyph-name="unid5" unicode="&#xd5;" d="M422.42 735.23C219.07 735.23 47 625.73 47 375.45C47 125.16 219.07 0.02 422.42 0.02C625.78 0.02 797.85 125.16 797.85 375.45C797.85 625.73 625.78 735.23 422.42 735.23ZM453.71 15.66C312.93 15.66 140.86 125.16 140.86 375.45C140.86 547.52 203.43 719.59 391.14 719.59C531.92 719.59 703.99 625.73 703.99 375.45C703.99 203.38 641.42 15.66 453.71 15.66Z"  horiz-adv-x="845" vert-adv-y="1000"  />

      
      <glyph glyph-name="unid6" unicode="&#xd6;" d="M422.42 735.23C219.07 735.23 47 625.73 47 375.45C47 125.16 219.07 0.02 422.42 0.02C625.78 0.02 797.85 125.16 797.85 375.45C797.85 625.73 625.78 735.23 422.42 735.23ZM453.71 15.66C312.93 15.66 140.86 125.16 140.86 375.45C140.86 547.52 203.43 719.59 391.14 719.59C531.92 719.59 703.99 625.73 703.99 375.45C703.99 203.38 641.42 15.66 453.71 15.66Z"  horiz-adv-x="845" vert-adv-y="1000"  />

      
      <glyph glyph-name="unid8" unicode="&#xd8;" d="M422.42 735.23C219.07 735.23 47 625.73 47 375.45C47 125.16 219.07 0.02 422.42 0.02C625.78 0.02 797.85 125.16 797.85 375.45C797.85 625.73 625.78 735.23 422.42 735.23ZM453.71 15.66C312.93 15.66 140.86 125.16 140.86 375.45C140.86 547.52 203.43 719.59 391.14 719.59C531.92 719.59 703.99 625.73 703.99 375.45C703.99 203.38 641.42 15.66 453.71 15.66Z"  horiz-adv-x="845" vert-adv-y="1000"  />

      
      <glyph glyph-name="uni50" unicode="&#x50;" d="M407.50 735.23L172.86 735.23L79.00 719.59L79.00 0.02L172.86 15.66L172.86 359.80L423.14 359.80C532.64 359.80 657.78 422.37 657.78 547.52C657.78 672.66 529.95 735.23 407.50 735.23ZM423.14 375.45L172.86 375.45L172.86 719.59L391.85 719.59C437.52 719.67 481.33 701.57 513.62 669.29C545.91 637.00 564.01 593.18 563.92 547.52C563.92 467.07 532.64 375.45 423.14 375.45Z"  horiz-adv-x="687" vert-adv-y="1000"  />

      
      <glyph glyph-name="uni51" unicode="&#x51;" d="M312.93-15.62L297.28-31.26C485.00-31.26 610.14-125.12 813.49-125.12L844.78-78.19C610.14-78.19 500.64-15.62 312.93-15.62ZM797.85 375.45C797.85 625.73 625.78 735.23 422.42 735.23C219.07 735.23 47.00 625.73 47.00 375.45C47.00 125.16 219.07 0.02 422.42 0.02C625.78 0.02 797.85 125.16 797.85 375.45ZM140.86 375.45C140.86 547.52 203.43 719.59 391.14 719.59C531.92 719.59 703.99 625.73 703.99 375.45C703.99 203.38 641.42 15.66 453.71 15.66C312.93 15.66 140.86 125.16 140.86 375.45Z"  horiz-adv-x="845" vert-adv-y="1000"  />

      
      <glyph glyph-name="uni52" unicode="&#x52;" d="M407.37 359.80L423.14 359.80C532.64 359.80 657.78 422.37 657.78 547.52C657.78 672.66 529.95 735.23 407.50 735.23L172.86 735.23L79.00 719.59L79.00 0.02L172.86 15.66L172.86 359.80L282.36 359.80C517.00 359.80 595.21 109.52 595.21 0.02L657.78 15.66C657.78 133.92 580.46 307.35 407.37 359.80ZM172.86 375.45L172.86 719.59L391.85 719.59C437.52 719.67 481.33 701.57 513.62 669.29C545.91 637.00 564.01 593.18 563.92 547.52C563.92 467.07 532.64 375.45 423.14 375.45Z"  horiz-adv-x="710" vert-adv-y="1000"  />

      
      <glyph glyph-name="uni53" unicode="&#x53;" d="M358.85 406.73C249.36 422.37 139.86 435.03 139.86 547.52C139.86 649.19 221.20 719.59 343.21 719.59C418.75 719.59 519.39 697.69 577.85 610.09L624.78 671.84C563.06 714.06 444.89 735.23 343.21 735.23C160.19 735.23 46 689.86 46 547.52C46 405.17 249.36 406.73 343.21 391.09C470.44 369.88 562.21 305.05 562.21 203.38C562.21 101.70 493.38 15.66 351.03 15.66C168.01 15.66 86.67 172.09 86.67 172.09L46.00 125.16C46.00 125.16 107.01 0.02 351.03 0.02C554.39 0.02 656.07 43.82 656.07 206.51C656.07 348.85 441.84 394.89 358.85 406.73Z"  horiz-adv-x="698" vert-adv-y="1000"  />

      
      <glyph glyph-name="uni54" unicode="&#x54;" d="M515.57 719.59L359.14 719.59L359.14 735.23L265.28 719.59L108.86 719.59L108.86 735.23L15.00 719.59L15.00 625.73L108.86 641.37L108.86 703.94L265.28 703.94L265.28 0.02L359.14 15.66L359.14 703.94L515.57 703.94L515.57 625.73L609.42 641.37L609.42 735.23Z"  horiz-adv-x="624" vert-adv-y="1000"  />

      
      <glyph glyph-name="uni55" unicode="&#x55;" d="M601.85 719.59L601.85 344.16C601.85 205.11 586.21 15.66 414.14 15.66C251.91 15.66 163.86 109.52 163.86 281.59L163.86 735.23L70 719.59L70 281.59C70 62.59 209.05 0.02 394.45 0.02C617.49 0.02 695.71 189.47 695.71 328.52L695.71 735.23Z"  horiz-adv-x="762" vert-adv-y="1000"  />

      
      <glyph glyph-name="unid9" unicode="&#xd9;" d="M601.85 719.59L601.85 344.16C601.85 205.11 586.21 15.66 414.14 15.66C251.91 15.66 163.86 109.52 163.86 281.59L163.86 735.23L70 719.59L70 281.59C70 62.59 209.05 0.02 394.45 0.02C617.49 0.02 695.71 189.47 695.71 328.52L695.71 735.23Z"  horiz-adv-x="762" vert-adv-y="1000"  />

      
      <glyph glyph-name="unida" unicode="&#xda;" d="M601.85 719.59L601.85 344.16C601.85 205.11 586.21 15.66 414.14 15.66C251.91 15.66 163.86 109.52 163.86 281.59L163.86 735.23L70 719.59L70 281.59C70 62.59 209.05 0.02 394.45 0.02C617.49 0.02 695.71 189.47 695.71 328.52L695.71 735.23Z"  horiz-adv-x="762" vert-adv-y="1000"  />

      
      <glyph glyph-name="unidb" unicode="&#xdb;" d="M601.85 719.59L601.85 344.16C601.85 205.11 586.21 15.66 414.14 15.66C251.91 15.66 163.86 109.52 163.86 281.59L163.86 735.23L70 719.59L70 281.59C70 62.59 209.05 0.02 394.45 0.02C617.49 0.02 695.71 189.47 695.71 328.52L695.71 735.23Z"  horiz-adv-x="762" vert-adv-y="1000"  />

      
      <glyph glyph-name="unidc" unicode="&#xdc;" d="M601.85 719.59L601.85 344.16C601.85 205.11 586.21 15.66 414.14 15.66C251.91 15.66 163.86 109.52 163.86 281.59L163.86 735.23L70 719.59L70 281.59C70 62.59 209.05 0.02 394.45 0.02C617.49 0.02 695.71 189.47 695.71 328.52L695.71 735.23Z"  horiz-adv-x="762" vert-adv-y="1000"  />

      
      <glyph glyph-name="uni56" unicode="&#x56;" d="M735.65 731.58L721.63 738.54L406.13 103.37L91.13 737.36L16 678.04L352.90 0.02L428.01 59.32L414.87 85.79Z"  horiz-adv-x="748" vert-adv-y="1000"  />

      
      <glyph glyph-name="uni57" unicode="&#x57;" d="M1119.37 731.58L1105.38 738.54L789.88 103.37L606.71 471.99L735.65 731.58L721.63 738.54L597.97 489.58L474.85 737.36L399.75 678.04L545.68 384.31L406.13 103.37L91.13 737.36L16.00 678.04L352.88 0.02L428.01 59.32L414.87 85.79L554.42 366.75L736.63 0.02L811.75 59.32L798.61 85.79Z"  horiz-adv-x="1132" vert-adv-y="1000"  />

      
      <glyph glyph-name="uni58" unicode="&#x58;" d="M656.26 76.30L376.13 410.13L640.62 725.30L628.62 735.35L365.93 422.29L103.34 735.23L45.99 657.56L304.68 349.29L21.00 11.22L32.99 1.17L314.87 337.11L598.90-1.38Z"  horiz-adv-x="681" vert-adv-y="1000"  />

      
      <glyph glyph-name="uni59" unicode="&#x59;" d="M635.97 727.16L622.43 734.98L356.61 274.56L88.35 735.23L15 675.06L276.19 226.55L276.19 0.02L370.04 15.66L370.04 265.95L369.73 265.99Z"  horiz-adv-x="646" vert-adv-y="1000"  />

      
      <glyph glyph-name="unidd" unicode="&#xdd;" d="M635.97 727.16L622.43 734.98L356.61 274.56L88.35 735.23L15 675.06L276.19 226.55L276.19 0.02L370.04 15.66L370.04 265.95L369.73 265.99Z"  horiz-adv-x="646" vert-adv-y="1000"  />

      
      <glyph glyph-name="uni0178" unicode="&#x0178;" d="M635.97 727.16L622.43 734.98L356.61 274.56L88.35 735.23L15 675.06L276.19 226.55L276.19 0.02L370.04 15.66L370.04 265.95L369.73 265.99Z"  horiz-adv-x="646" vert-adv-y="1000"  />

      
      <glyph glyph-name="uni5a" unicode="&#x5a;" d="M646.07 719.59L129.86 719.59L129.86 735.23L36 719.59L36 625.73L129.86 641.37L129.86 703.94L552.21 703.94L36 140.81L36 125.16C36 125.16 114.21 0.02 317.57 0.02C552.21 0.02 630.42 172.09 630.42 172.09L599.14 219.02C599.14 219.02 536.57 15.66 333.21 15.66C246.19 11.77 165.59 61.36 129.86 140.81L646.07 703.94Z"  horiz-adv-x="675" vert-adv-y="1000"  />

      
      <glyph glyph-name="uni5b" unicode="&#x5b;" d="M299.00 782.16L299.00 797.80L173.86 797.80L80 782.16L80-203.33L173.86-187.69L299.00-187.69L299.00-172.05L173.86-172.05L173.86 782.16Z"  horiz-adv-x="254" vert-adv-y="1000"  />

      
      <glyph glyph-name="uni5c" unicode="&#x5c;" d="M90.86 907.30L-3 891.66L356.78-109.48L450.64-93.83Z"  horiz-adv-x="472" vert-adv-y="1000"  />

      
      <glyph glyph-name="uni5d" unicode="&#x5d;" d="M80.14 797.80L-45 797.80L-45 782.16L80.14 782.16L80.14-172.05L-45-172.05L-45-187.69L80.14-187.69L174-172.05L174 813.44Z"  horiz-adv-x="254" vert-adv-y="1000"  />

      
      <glyph glyph-name="uni60" unicode="&#x60;" d="M100.28 735.49C74.37 735.69 53.20 714.83 53.00 688.92C52.81 663.00 73.66 641.83 99.57 641.63C96.26 606.80 80.80 594.64 53.36 594.64L53.36 579C115.93 579 147.21 625.93 147.21 688.50C147.23 700.96 142.29 712.91 133.49 721.72C124.69 730.54 112.74 735.49 100.28 735.49Z"  horiz-adv-x="200" vert-adv-y="1000"  />

      
      <glyph glyph-name="uni61" unicode="&#x61;" d="M517.28 547.52L517.28 502.47C463.55 543.68 397.26 565.12 329.57 563.16C173.14 563.16 48 469.30 48 281.59C48 93.88 173.14 0.02 329.57 0.02C397.26-1.95 463.56 19.49 517.28 60.72L517.28 0.02L611.14 15.66L611.14 563.16ZM360.85 15.66C267.00 15.66 141.86 93.88 141.86 281.59C141.86 406.73 173.14 547.52 298.28 547.52C381.68 543.40 460.21 507.02 517.28 446.07L517.28 101.70C481.48 50.12 423.59 18.28 360.85 15.66Z"  horiz-adv-x="686" vert-adv-y="1000"  />

      
      <glyph glyph-name="unie0" unicode="&#xe0;" d="M517.28 547.52L517.28 502.47C463.55 543.68 397.26 565.12 329.57 563.16C173.14 563.16 48 469.30 48 281.59C48 93.88 173.14 0.02 329.57 0.02C397.26-1.95 463.56 19.49 517.28 60.72L517.28 0.02L611.14 15.66L611.14 563.16ZM360.85 15.66C267.00 15.66 141.86 93.88 141.86 281.59C141.86 406.73 173.14 547.52 298.28 547.52C381.68 543.40 460.21 507.02 517.28 446.07L517.28 101.70C481.48 50.12 423.59 18.28 360.85 15.66Z"  horiz-adv-x="686" vert-adv-y="1000"  />

      
      <glyph glyph-name="unie1" unicode="&#xe1;" d="M517.28 547.52L517.28 502.47C463.55 543.68 397.26 565.12 329.57 563.16C173.14 563.16 48 469.30 48 281.59C48 93.88 173.14 0.02 329.57 0.02C397.26-1.95 463.56 19.49 517.28 60.72L517.28 0.02L611.14 15.66L611.14 563.16ZM360.85 15.66C267.00 15.66 141.86 93.88 141.86 281.59C141.86 406.73 173.14 547.52 298.28 547.52C381.68 543.40 460.21 507.02 517.28 446.07L517.28 101.70C481.48 50.12 423.59 18.28 360.85 15.66Z"  horiz-adv-x="686" vert-adv-y="1000"  />

      
      <glyph glyph-name="unie3" unicode="&#xe3;" d="M517.28 547.52L517.28 502.47C463.55 543.68 397.26 565.12 329.57 563.16C173.14 563.16 48 469.30 48 281.59C48 93.88 173.14 0.02 329.57 0.02C397.26-1.95 463.56 19.49 517.28 60.72L517.28 0.02L611.14 15.66L611.14 563.16ZM360.85 15.66C267.00 15.66 141.86 93.88 141.86 281.59C141.86 406.73 173.14 547.52 298.28 547.52C381.68 543.40 460.21 507.02 517.28 446.07L517.28 101.70C481.48 50.12 423.59 18.28 360.85 15.66Z"  horiz-adv-x="686" vert-adv-y="1000"  />

      
      <glyph glyph-name="unie4" unicode="&#xe4;" d="M517.28 547.52L517.28 502.47C463.55 543.68 397.26 565.12 329.57 563.16C173.14 563.16 48 469.30 48 281.59C48 93.88 173.14 0.02 329.57 0.02C397.26-1.95 463.56 19.49 517.28 60.72L517.28 0.02L611.14 15.66L611.14 563.16ZM360.85 15.66C267.00 15.66 141.86 93.88 141.86 281.59C141.86 406.73 173.14 547.52 298.28 547.52C381.68 543.40 460.21 507.02 517.28 446.07L517.28 101.70C481.48 50.12 423.59 18.28 360.85 15.66Z"  horiz-adv-x="686" vert-adv-y="1000"  />

      
      <glyph glyph-name="unie5" unicode="&#xe5;" d="M517.28 547.52L517.28 502.47C463.55 543.68 397.26 565.12 329.57 563.16C173.14 563.16 48 469.30 48 281.59C48 93.88 173.14 0.02 329.57 0.02C397.26-1.95 463.56 19.49 517.28 60.72L517.28 0.02L611.14 15.66L611.14 563.16ZM360.85 15.66C267.00 15.66 141.86 93.88 141.86 281.59C141.86 406.73 173.14 547.52 298.28 547.52C381.68 543.40 460.21 507.02 517.28 446.07L517.28 101.70C481.48 50.12 423.59 18.28 360.85 15.66Z"  horiz-adv-x="686" vert-adv-y="1000"  />

      
      <glyph glyph-name="uni62" unicode="&#x62;" d="M355.57 563.08C287.88 565.04 221.58 543.60 167.86 502.38L167.86 735.23L74 719.59L74 0.02L167.86 15.66L167.86 60.72C221.58 19.49 287.88-1.95 355.57 0.02C512.00 0.02 637.14 93.88 637.14 281.59C637.14 469.30 512.00 563.08 355.57 563.08ZM386.85 15.58C303.46 19.69 224.93 56.06 167.86 117.01L167.86 461.40C203.67 512.97 261.55 544.81 324.28 547.43C418.14 547.43 543.28 469.22 543.28 281.51C543.28 156.37 512.00 15.66 386.85 15.66Z"  horiz-adv-x="686" vert-adv-y="1000"  />

      
      <glyph glyph-name="uni63" unicode="&#x63;" d="M517.32 109.52C482.72 55.51 424.84 20.78 360.90 15.66C267.04 15.66 141.90 93.88 141.90 281.59C141.90 406.73 173.18 547.52 298.32 547.52C368.57 545.60 433.34 509.14 471.44 450.09L501.70 514.40C450.55 547.63 390.55 564.63 329.57 563.16C173.14 563.16 48.00 469.30 48.00 281.59C48.00 93.88 173.14 0.02 329.57 0.02C394.62 0.02 486.00 31.31 532.92 78.24Z"  horiz-adv-x="562" vert-adv-y="1000"  />

      
      <glyph glyph-name="uni64" unicode="&#x64;" d="M517.28 719.50L517.28 502.38C463.55 543.60 397.26 565.03 329.57 563.08C173.14 563.08 48 469.22 48 281.51C48 93.79 173.14-0.06 329.57-0.06C397.26-2.03 463.56 19.41 517.28 60.63L517.28-0.06L611.14 15.58L611.14 735.23ZM360.85 15.58C267.00 15.58 141.86 93.79 141.86 281.51C141.86 406.65 173.14 547.43 298.28 547.43C381.68 543.32 460.21 506.94 517.28 445.98L517.28 101.62C481.46 50.07 423.57 18.26 360.85 15.66Z"  horiz-adv-x="686" vert-adv-y="1000"  />

      
      <glyph glyph-name="uni65" unicode="&#x65;" d="M360.85 15.66C267 15.66 141.86 93.88 141.86 281.59L141.86 282.01C272.09 286.45 385.65 344.16 517.28 344.16L605.99 344.16C596.37 412.89 558.54 474.51 501.60 514.19L501.70 514.40C500.14 515.46 498.47 516.36 496.88 517.38C493.53 519.46 490.15 521.72 486.66 523.64C483.74 525.35 480.78 526.93 477.82 528.52C474.21 530.43 470.58 532.33 466.87 534.11C463.78 535.54 460.61 536.90 457.48 538.28C453.73 539.90 449.98 541.51 446.12 542.95C442.78 544.22 439.38 545.33 435.96 546.45C432.14 547.75 428.35 549.04 424.45 550.17C420.55 551.29 416.98 552.13 413.23 553.06C409.47 554.00 405.72 554.98 401.88 555.80C397.71 556.67 393.43 557.32 389.18 558.05C385.61 558.63 382.11 559.34 378.52 559.82C373.49 560.51 368.38 560.93 363.27 561.39C360.31 561.66 357.37 562.05 354.37 562.26C346.19 562.80 337.93 563.08 329.57 563.10C173.14 563.10 48.00 469.24 48.00 281.53C48.00 270.77 48.46 260.36 49.25 250.24C62.50 83.39 182.05-0.04 329.51-0.04C394.56-0.04 485.93 31.24 532.86 78.17L517.22 109.46C482.61 55.49 424.76 20.79 360.85 15.66ZM298.28 547.52C304.92 547.46 311.55 547.03 318.14 546.24C319.98 546.04 321.85 545.76 323.73 545.49C329.29 544.70 334.85 543.66 340.41 542.36C341.85 542.01 343.29 541.76 344.73 541.38C351.73 539.59 358.62 537.43 365.38 534.90C366.88 534.33 368.36 533.67 369.86 533.06C375.48 530.83 381.04 528.31 386.55 525.53C388.32 524.64 390.10 523.76 391.87 522.82C398.81 519.11 405.55 515.04 412.06 510.62C412.31 510.43 412.56 510.22 412.81 510.06C419.18 505.58 425.30 500.77 431.16 495.65C432.83 494.19 434.48 492.68 436.13 491.16C441.20 486.49 446.13 481.50 450.91 476.21C452.00 475.00 453.15 473.89 454.21 472.64C459.90 465.99 465.22 459.03 470.12 451.78C488.77 423.76 501.91 392.45 508.86 359.51C380.90 357.13 269.42 302.05 142.11 297.63C144.78 418.41 178.46 547.52 298.28 547.52Z"  horiz-adv-x="635" vert-adv-y="1000"  />

      
      <glyph glyph-name="unie8" unicode="&#xe8;" d="M360.85 15.66C267 15.66 141.86 93.88 141.86 281.59L141.86 282.01C272.09 286.45 385.65 344.16 517.28 344.16L605.99 344.16C596.37 412.89 558.54 474.51 501.60 514.19L501.70 514.40C500.14 515.46 498.47 516.36 496.88 517.38C493.53 519.46 490.15 521.72 486.66 523.64C483.74 525.35 480.78 526.93 477.82 528.52C474.21 530.43 470.58 532.33 466.87 534.11C463.78 535.54 460.61 536.90 457.48 538.28C453.73 539.90 449.98 541.51 446.12 542.95C442.78 544.22 439.38 545.33 435.96 546.45C432.14 547.75 428.35 549.04 424.45 550.17C420.55 551.29 416.98 552.13 413.23 553.06C409.47 554.00 405.72 554.98 401.88 555.80C397.71 556.67 393.43 557.32 389.18 558.05C385.61 558.63 382.11 559.34 378.52 559.82C373.49 560.51 368.38 560.93 363.27 561.39C360.31 561.66 357.37 562.05 354.37 562.26C346.19 562.80 337.93 563.08 329.57 563.10C173.14 563.10 48.00 469.24 48.00 281.53C48.00 270.77 48.46 260.36 49.25 250.24C62.50 83.39 182.05-0.04 329.51-0.04C394.56-0.04 485.93 31.24 532.86 78.17L517.22 109.46C482.61 55.49 424.76 20.79 360.85 15.66ZM298.28 547.52C304.92 547.46 311.55 547.03 318.14 546.24C319.98 546.04 321.85 545.76 323.73 545.49C329.29 544.70 334.85 543.66 340.41 542.36C341.85 542.01 343.29 541.76 344.73 541.38C351.73 539.59 358.62 537.43 365.38 534.90C366.88 534.33 368.36 533.67 369.86 533.06C375.48 530.83 381.04 528.31 386.55 525.53C388.32 524.64 390.10 523.76 391.87 522.82C398.81 519.11 405.55 515.04 412.06 510.62C412.31 510.43 412.56 510.22 412.81 510.06C419.18 505.58 425.30 500.77 431.16 495.65C432.83 494.19 434.48 492.68 436.13 491.16C441.20 486.49 446.13 481.50 450.91 476.21C452.00 475.00 453.15 473.89 454.21 472.64C459.90 465.99 465.22 459.03 470.12 451.78C488.77 423.76 501.91 392.45 508.86 359.51C380.90 357.13 269.42 302.05 142.11 297.63C144.78 418.41 178.46 547.52 298.28 547.52Z"  horiz-adv-x="635" vert-adv-y="1000"  />

      
      <glyph glyph-name="unie9" unicode="&#xe9;" d="M360.85 15.66C267 15.66 141.86 93.88 141.86 281.59L141.86 282.01C272.09 286.45 385.65 344.16 517.28 344.16L605.99 344.16C596.37 412.89 558.54 474.51 501.60 514.19L501.70 514.40C500.14 515.46 498.47 516.36 496.88 517.38C493.53 519.46 490.15 521.72 486.66 523.64C483.74 525.35 480.78 526.93 477.82 528.52C474.21 530.43 470.58 532.33 466.87 534.11C463.78 535.54 460.61 536.90 457.48 538.28C453.73 539.90 449.98 541.51 446.12 542.95C442.78 544.22 439.38 545.33 435.96 546.45C432.14 547.75 428.35 549.04 424.45 550.17C420.55 551.29 416.98 552.13 413.23 553.06C409.47 554.00 405.72 554.98 401.88 555.80C397.71 556.67 393.43 557.32 389.18 558.05C385.61 558.63 382.11 559.34 378.52 559.82C373.49 560.51 368.38 560.93 363.27 561.39C360.31 561.66 357.37 562.05 354.37 562.26C346.19 562.80 337.93 563.08 329.57 563.10C173.14 563.10 48.00 469.24 48.00 281.53C48.00 270.77 48.46 260.36 49.25 250.24C62.50 83.39 182.05-0.04 329.51-0.04C394.56-0.04 485.93 31.24 532.86 78.17L517.22 109.46C482.61 55.49 424.76 20.79 360.85 15.66ZM298.28 547.52C304.92 547.46 311.55 547.03 318.14 546.24C319.98 546.04 321.85 545.76 323.73 545.49C329.29 544.70 334.85 543.66 340.41 542.36C341.85 542.01 343.29 541.76 344.73 541.38C351.73 539.59 358.62 537.43 365.38 534.90C366.88 534.33 368.36 533.67 369.86 533.06C375.48 530.83 381.04 528.31 386.55 525.53C388.32 524.64 390.10 523.76 391.87 522.82C398.81 519.11 405.55 515.04 412.06 510.62C412.31 510.43 412.56 510.22 412.81 510.06C419.18 505.58 425.30 500.77 431.16 495.65C432.83 494.19 434.48 492.68 436.13 491.16C441.20 486.49 446.13 481.50 450.91 476.21C452.00 475.00 453.15 473.89 454.21 472.64C459.90 465.99 465.22 459.03 470.12 451.78C488.77 423.76 501.91 392.45 508.86 359.51C380.90 357.13 269.42 302.05 142.11 297.63C144.78 418.41 178.46 547.52 298.28 547.52Z"  horiz-adv-x="635" vert-adv-y="1000"  />

      
      <glyph glyph-name="unieb" unicode="&#xeb;" d="M360.85 15.66C267 15.66 141.86 93.88 141.86 281.59L141.86 282.01C272.09 286.45 385.65 344.16 517.28 344.16L605.99 344.16C596.37 412.89 558.54 474.51 501.60 514.19L501.70 514.40C500.14 515.46 498.47 516.36 496.88 517.38C493.53 519.46 490.15 521.72 486.66 523.64C483.74 525.35 480.78 526.93 477.82 528.52C474.21 530.43 470.58 532.33 466.87 534.11C463.78 535.54 460.61 536.90 457.48 538.28C453.73 539.90 449.98 541.51 446.12 542.95C442.78 544.22 439.38 545.33 435.96 546.45C432.14 547.75 428.35 549.04 424.45 550.17C420.55 551.29 416.98 552.13 413.23 553.06C409.47 554.00 405.72 554.98 401.88 555.80C397.71 556.67 393.43 557.32 389.18 558.05C385.61 558.63 382.11 559.34 378.52 559.82C373.49 560.51 368.38 560.93 363.27 561.39C360.31 561.66 357.37 562.05 354.37 562.26C346.19 562.80 337.93 563.08 329.57 563.10C173.14 563.10 48.00 469.24 48.00 281.53C48.00 270.77 48.46 260.36 49.25 250.24C62.50 83.39 182.05-0.04 329.51-0.04C394.56-0.04 485.93 31.24 532.86 78.17L517.22 109.46C482.61 55.49 424.76 20.79 360.85 15.66ZM298.28 547.52C304.92 547.46 311.55 547.03 318.14 546.24C319.98 546.04 321.85 545.76 323.73 545.49C329.29 544.70 334.85 543.66 340.41 542.36C341.85 542.01 343.29 541.76 344.73 541.38C351.73 539.59 358.62 537.43 365.38 534.90C366.88 534.33 368.36 533.67 369.86 533.06C375.48 530.83 381.04 528.31 386.55 525.53C388.32 524.64 390.10 523.76 391.87 522.82C398.81 519.11 405.55 515.04 412.06 510.62C412.31 510.43 412.56 510.22 412.81 510.06C419.18 505.58 425.30 500.77 431.16 495.65C432.83 494.19 434.48 492.68 436.13 491.16C441.20 486.49 446.13 481.50 450.91 476.21C452.00 475.00 453.15 473.89 454.21 472.64C459.90 465.99 465.22 459.03 470.12 451.78C488.77 423.76 501.91 392.45 508.86 359.51C380.90 357.13 269.42 302.05 142.11 297.63C144.78 418.41 178.46 547.52 298.28 547.52Z"  horiz-adv-x="635" vert-adv-y="1000"  />

      
      <glyph glyph-name="uni66" unicode="&#x66;" d="M267.64 719.50C298.93 719.50 314.57 672.57 314.57 672.57L345.85 703.86C324.44 723.42 296.64 734.54 267.64 735.15C162.33 735.15 100.62 677.06 96.01 547.43L33.00 547.43L33.00 531.79L95.57 531.79L95.57-0.06L189.43 15.58L189.43 531.79L314.57 531.79L314.57 547.52L189.43 547.52C189.43 656.93 205.07 719.50 267.64 719.50Z"  horiz-adv-x="329" vert-adv-y="1000"  />

      
      <glyph glyph-name="uni67" unicode="&#x67;" d="M326.65 62.51C232.80 62.51 107.65 62.51 107.65 140.72C107.86 173.79 122.75 205.06 148.28 226.07C185.41 201.71 238.34 187.65 310.97 187.65C483.04 187.65 545.61 265.86 545.61 375.36C546.92 412.83 537.11 449.84 517.41 481.73C569.22 501.34 592.49 544.01 592.49 610.00L545.57 641.29C545.57 585.98 537.60 530.75 499.81 503.15C463.22 540.70 402.82 563.08 310.93 563.08C138.86 563.08 76.29 484.86 76.29 375.36C73.81 328.08 90.51 281.79 122.61 246.99C87.15 228.57 45.00 195.26 45.00 140.62C45.00 46.76 185.78 46.76 264.00 46.76C404.78 46.76 514.28 15.48 514.28-62.74C514.28-140.95 436.07-172.24 310.93-172.24C170.14-172.24 91.93-47.09 91.93-47.09L45.00-94.02C45.00-94.02 123.21-187.88 310.93-187.88C498.64-187.88 608.14-156.59 608.14-62.74C608.14 31.12 483.08 62.51 326.65 62.51ZM311.01 547.43C389.22 547.43 451.79 469.22 451.79 375.36C451.79 281.51 389.22 203.29 311.01 203.29C232.80 203.29 170.22 281.51 170.22 375.36C170.22 469.22 232.80 547.52 311.01 547.52Z"  horiz-adv-x="623" vert-adv-y="1000"  />

      
      <glyph glyph-name="uni68" unicode="&#x68;" d="M354.57 563.08C274.41 565.80 200.43 520.18 166.86 447.34L166.86 735.23L73.00 719.59L73.00 0.02L166.86 15.66L166.86 359.80C166.86 453.66 229.43 547.52 338.93 547.52C448.42 547.52 479.71 472.62 479.71 359.80L479.71 0.02L573.57 15.66L573.57 359.80C573.57 500.50 479.71 563.08 354.57 563.08Z"  horiz-adv-x="640" vert-adv-y="1000"  />

      
      <glyph glyph-name="uni69" unicode="&#x69;" d="M72-0.06L165.86 15.58L165.86 547.43L72 531.79ZM118.93 594.36C144.85 594.36 165.86 615.37 165.86 641.29C165.86 667.21 144.85 688.22 118.93 688.22C93.01 688.22 72 667.21 72 641.29C72 615.37 93.01 594.36 118.93 594.36Z"  horiz-adv-x="238" vert-adv-y="1000"  />

      
      <glyph glyph-name="uniec" unicode="&#xec;" d="M72-0.06L165.86 15.58L165.86 547.43L72 531.79ZM118.93 594.36C144.85 594.36 165.86 615.37 165.86 641.29C165.86 667.21 144.85 688.22 118.93 688.22C93.01 688.22 72 667.21 72 641.29C72 615.37 93.01 594.36 118.93 594.36Z"  horiz-adv-x="238" vert-adv-y="1000"  />

      
      <glyph glyph-name="unied" unicode="&#xed;" d="M72-0.06L165.86 15.58L165.86 547.43L72 531.79ZM118.93 594.36C144.85 594.36 165.86 615.37 165.86 641.29C165.86 667.21 144.85 688.22 118.93 688.22C93.01 688.22 72 667.21 72 641.29C72 615.37 93.01 594.36 118.93 594.36Z"  horiz-adv-x="238" vert-adv-y="1000"  />

      
      <glyph glyph-name="uniee" unicode="&#xee;" d="M72-0.06L165.86 15.58L165.86 547.43L72 531.79ZM118.93 594.36C144.85 594.36 165.86 615.37 165.86 641.29C165.86 667.21 144.85 688.22 118.93 688.22C93.01 688.22 72 667.21 72 641.29C72 615.37 93.01 594.36 118.93 594.36Z"  horiz-adv-x="238" vert-adv-y="1000"  />

      
      <glyph glyph-name="unief" unicode="&#xef;" d="M72-0.06L165.86 15.58L165.86 547.43L72 531.79ZM118.93 594.36C144.85 594.36 165.86 615.37 165.86 641.29C165.86 667.21 144.85 688.22 118.93 688.22C93.01 688.22 72 667.21 72 641.29C72 615.37 93.01 594.36 118.93 594.36Z"  horiz-adv-x="238" vert-adv-y="1000"  />

      
      <glyph glyph-name="uni6a" unicode="&#x6a;" d="M71.43-0.06C71.43-109.56 55.78-172.13-6.79-172.13C-38.07-172.13-53.71-125.20-53.71-125.20L-85-156.49C-63.58-176.05-35.79-187.17-6.79-187.77C102.71-187.77 165.28-125.20 165.28 15.58L165.28 547.52L71.43 531.87ZM118.36 594.36C144.27 594.36 165.28 615.37 165.28 641.29C165.28 667.21 144.27 688.22 118.36 688.22C92.44 688.22 71.43 667.21 71.43 641.29C71.43 615.37 92.44 594.36 118.36 594.36Z"  horiz-adv-x="238" vert-adv-y="1000"  />

      
      <glyph glyph-name="uni6b" unicode="&#x6b;" d="M268.99 326.98L537.03 551.88L526.97 563.87L246.38 328.41L246.07 328.41L246.07 328.14L167.86 262.51L167.86 735.96L74.00 720.32L74.00 0.75L167.86 16.39L167.86 242.11L251.77 312.52C403.81 306.83 458.81 77.17 458.81-0.06L527.64 15.58C527.64 105.18 427.78 308.73 268.99 326.98Z"  horiz-adv-x="570" vert-adv-y="1000"  />

      
      <glyph glyph-name="uni6c" unicode="&#x6c;" d="M-20 735.23L-4.36 719.59C26.93 719.59 73.86 703.94 73.86 594.44L73.86 0.02L167.71 15.66L167.71 594.44C167.71 703.94 73.86 735.23-20 735.23Z"  horiz-adv-x="241" vert-adv-y="1000"  />

      
      <glyph glyph-name="uni6d" unicode="&#x6d;" d="M636.14 563.08C559.90 563.08 504.32 521.80 486.13 456.00C464.69 524.82 405.31 563.08 307.64 563.08C248.40 566.40 192.93 533.90 166.86 480.61L166.86 547.52L73.00 531.87L73.00 0.02L166.86 15.66L166.86 391.09C166.86 484.95 213.78 547.52 292.00 547.52C370.21 547.52 401.50 469.30 401.50 391.09L401.50 0.02L495.35 15.66L495.35 391.09C495.35 484.95 542.28 547.52 620.49 547.52C698.71 547.52 729.99 469.30 729.99 391.09L729.99 0.02L823.85 15.66L823.85 391.09C823.85 500.50 761.28 563.08 636.14 563.08Z"  horiz-adv-x="892" vert-adv-y="1000"  />

      
      <glyph glyph-name="uni6e" unicode="&#x6e;" d="M354.57 563.08C274.41 565.80 200.43 520.18 166.86 447.34L166.86 547.52L73.00 531.87L73.00 0.02L166.86 15.66L166.86 359.80C166.86 453.66 229.43 547.52 338.93 547.52C448.42 547.52 479.71 472.62 479.71 359.80L479.71 0.02L573.57 15.66L573.57 359.80C573.57 500.50 479.71 563.08 354.57 563.08Z"  horiz-adv-x="640" vert-adv-y="1000"  />

      
      <glyph glyph-name="unif1" unicode="&#xf1;" d="M354.57 563.08C274.41 565.80 200.43 520.18 166.86 447.34L166.86 547.52L73.00 531.87L73.00 0.02L166.86 15.66L166.86 359.80C166.86 453.66 229.43 547.52 338.93 547.52C448.42 547.52 479.71 472.62 479.71 359.80L479.71 0.02L573.57 15.66L573.57 359.80C573.57 500.50 479.71 563.08 354.57 563.08Z"  horiz-adv-x="640" vert-adv-y="1000"  />

      
      <glyph glyph-name="uni6f" unicode="&#x6f;" d="M329.57 563.08C173.14 563.08 48 469.22 48 281.51C48 93.79 173.14-0.06 329.57-0.06C486.00-0.06 611.14 93.79 611.14 281.51C611.14 469.22 486.00 563.08 329.57 563.08ZM360.85 15.58C267.00 15.58 141.86 93.79 141.86 281.51C141.86 406.65 173.14 547.43 298.28 547.43C392.14 547.43 517.28 469.22 517.28 281.51C517.28 156.37 486.00 15.66 360.85 15.66Z"  horiz-adv-x="660" vert-adv-y="1000"  />

      
      <glyph glyph-name="unif2" unicode="&#xf2;" d="M329.57 563.08C173.14 563.08 48 469.22 48 281.51C48 93.79 173.14-0.06 329.57-0.06C486.00-0.06 611.14 93.79 611.14 281.51C611.14 469.22 486.00 563.08 329.57 563.08ZM360.85 15.58C267.00 15.58 141.86 93.79 141.86 281.51C141.86 406.65 173.14 547.43 298.28 547.43C392.14 547.43 517.28 469.22 517.28 281.51C517.28 156.37 486.00 15.66 360.85 15.66Z"  horiz-adv-x="660" vert-adv-y="1000"  />

      
      <glyph glyph-name="unif3" unicode="&#xf3;" d="M329.57 563.08C173.14 563.08 48 469.22 48 281.51C48 93.79 173.14-0.06 329.57-0.06C486.00-0.06 611.14 93.79 611.14 281.51C611.14 469.22 486.00 563.08 329.57 563.08ZM360.85 15.58C267.00 15.58 141.86 93.79 141.86 281.51C141.86 406.65 173.14 547.43 298.28 547.43C392.14 547.43 517.28 469.22 517.28 281.51C517.28 156.37 486.00 15.66 360.85 15.66Z"  horiz-adv-x="660" vert-adv-y="1000"  />

      
      <glyph glyph-name="unif5" unicode="&#xf5;" d="M329.57 563.08C173.14 563.08 48 469.22 48 281.51C48 93.79 173.14-0.06 329.57-0.06C486.00-0.06 611.14 93.79 611.14 281.51C611.14 469.22 486.00 563.08 329.57 563.08ZM360.85 15.58C267.00 15.58 141.86 93.79 141.86 281.51C141.86 406.65 173.14 547.43 298.28 547.43C392.14 547.43 517.28 469.22 517.28 281.51C517.28 156.37 486.00 15.66 360.85 15.66Z"  horiz-adv-x="660" vert-adv-y="1000"  />

      
      <glyph glyph-name="unif6" unicode="&#xf6;" d="M329.57 563.08C173.14 563.08 48 469.22 48 281.51C48 93.79 173.14-0.06 329.57-0.06C486.00-0.06 611.14 93.79 611.14 281.51C611.14 469.22 486.00 563.08 329.57 563.08ZM360.85 15.58C267.00 15.58 141.86 93.79 141.86 281.51C141.86 406.65 173.14 547.43 298.28 547.43C392.14 547.43 517.28 469.22 517.28 281.51C517.28 156.37 486.00 15.66 360.85 15.66Z"  horiz-adv-x="660" vert-adv-y="1000"  />

      
      <glyph glyph-name="unif8" unicode="&#xf8;" d="M329.57 563.08C173.14 563.08 48 469.22 48 281.51C48 93.79 173.14-0.06 329.57-0.06C486.00-0.06 611.14 93.79 611.14 281.51C611.14 469.22 486.00 563.08 329.57 563.08ZM360.85 15.58C267.00 15.58 141.86 93.79 141.86 281.51C141.86 406.65 173.14 547.43 298.28 547.43C392.14 547.43 517.28 469.22 517.28 281.51C517.28 156.37 486.00 15.66 360.85 15.66Z"  horiz-adv-x="660" vert-adv-y="1000"  />

      
      <glyph glyph-name="uni70" unicode="&#x70;" d="M354.57 563.08C286.88 565.04 220.58 543.60 166.86 502.38L166.86 547.52L73 531.87L73-187.69L166.86-172.05L166.86 60.72C220.58 19.49 286.88-1.95 354.57 0.02C511.00 0.02 636.14 93.88 636.14 281.59C636.14 469.30 511.00 563.08 354.57 563.08ZM385.85 15.58C302.46 19.69 223.93 56.06 166.86 117.01L166.86 461.40C202.67 512.97 260.55 544.81 323.28 547.43C417.14 547.43 542.28 469.22 542.28 281.51C542.28 156.37 511.00 15.66 385.85 15.66Z"  horiz-adv-x="685" vert-adv-y="1000"  />

      
      <glyph glyph-name="uni71" unicode="&#x71;" d="M517.28 531.79L517.28 502.38C463.55 543.60 397.26 565.03 329.57 563.08C173.14 563.08 48 469.22 48 281.51C48 93.79 173.14-0.06 329.57-0.06C397.26-2.03 463.56 19.41 517.28 60.63L517.28-187.77L611.14-172.13L611.14 547.52ZM360.85 15.58C267.00 15.58 141.86 93.79 141.86 281.51C141.86 406.65 173.14 547.43 298.28 547.43C381.68 543.32 460.21 506.94 517.28 445.98L517.28 101.62C481.46 50.07 423.57 18.26 360.85 15.66Z"  horiz-adv-x="686" vert-adv-y="1000"  />

      
      <glyph glyph-name="uni72" unicode="&#x72;" d="M323.28 563.08C253.53 563.60 190.95 520.31 166.86 454.85L166.86 547.52L73.00 531.87L73.00 0.02L166.86 15.66L166.86 359.80C166.86 453.66 229.43 547.52 307.64 547.52C385.85 547.52 401.50 438.02 401.50 359.80L495.35 375.45C495.35 484.95 432.78 563.08 323.28 563.08Z"  horiz-adv-x="524" vert-adv-y="1000"  />

      
      <glyph glyph-name="uni73" unicode="&#x73;" d="M297.22 312.79C219.01 328.44 140.79 335.73 140.79 422.29C140.79 500.50 187.72 547.43 281.58 547.43C356.25 546.15 426.06 510.12 470.37 450.01L500.64 514.31C453.15 546.79 359.79 563.08 281.64 563.08C140.86 563.08 47.00 531.79 47.00 422.29C47.00 312.79 220.28 309.41 281.64 297.15C359.85 281.51 422.42 234.58 422.42 156.37C422.42 78.15 391.14 15.58 281.64 15.58C140.86 15.58 78.29 140.72 78.29 140.72L47.00 93.79C47.00 93.79 93.93-0.06 281.64-0.06C438.07-0.06 516.28 31.22 516.28 156.37C516.22 265.95 360.42 300.13 297.22 312.79Z"  horiz-adv-x="563" vert-adv-y="1000"  />

      
      <glyph glyph-name="uni74" unicode="&#x74;" d="M311.57 62.51C311.57 62.51 295.93 15.58 264.64 15.58C202.07 15.58 186.43 78.15 186.43 187.65L186.43 531.79L311.57 531.79L311.57 547.52L186.43 547.52L186.43 657.02L92.57 641.37L92.57 547.52L30.00 547.52L30.00 531.87L92.57 531.87L92.57 203.38C92.57 62.59 155.14 0.02 264.64 0.02C293.64 0.63 321.44 11.74 342.85 31.31Z"  horiz-adv-x="365" vert-adv-y="1000"  />

      
      <glyph glyph-name="uni75" unicode="&#x75;" d="M472.71 547.52L472.71 203.38C472.71 109.52 410.14 15.66 300.64 15.66C191.14 15.66 159.86 90.54 159.86 203.38L159.86 563.16L66.00 547.52L66.00 203.38C66.00 62.59 159.86 0.02 285.00 0.02C365.16-2.70 439.14 42.91 472.71 115.76L472.71 0.02L566.57 15.66L566.57 563.16Z"  horiz-adv-x="641" vert-adv-y="1000"  />

      
      <glyph glyph-name="unif9" unicode="&#xf9;" d="M472.71 547.52L472.71 203.38C472.71 109.52 410.14 15.66 300.64 15.66C191.14 15.66 159.86 90.54 159.86 203.38L159.86 563.16L66.00 547.52L66.00 203.38C66.00 62.59 159.86 0.02 285.00 0.02C365.16-2.70 439.14 42.91 472.71 115.76L472.71 0.02L566.57 15.66L566.57 563.16Z"  horiz-adv-x="641" vert-adv-y="1000"  />

      
      <glyph glyph-name="unifa" unicode="&#xfa;" d="M472.71 547.52L472.71 203.38C472.71 109.52 410.14 15.66 300.64 15.66C191.14 15.66 159.86 90.54 159.86 203.38L159.86 563.16L66.00 547.52L66.00 203.38C66.00 62.59 159.86 0.02 285.00 0.02C365.16-2.70 439.14 42.91 472.71 115.76L472.71 0.02L566.57 15.66L566.57 563.16Z"  horiz-adv-x="641" vert-adv-y="1000"  />

      
      <glyph glyph-name="unifb" unicode="&#xfb;" d="M472.71 547.52L472.71 203.38C472.71 109.52 410.14 15.66 300.64 15.66C191.14 15.66 159.86 90.54 159.86 203.38L159.86 563.16L66.00 547.52L66.00 203.38C66.00 62.59 159.86 0.02 285.00 0.02C365.16-2.70 439.14 42.91 472.71 115.76L472.71 0.02L566.57 15.66L566.57 563.16Z"  horiz-adv-x="641" vert-adv-y="1000"  />

      
      <glyph glyph-name="unifc" unicode="&#xfc;" d="M472.71 547.52L472.71 203.38C472.71 109.52 410.14 15.66 300.64 15.66C191.14 15.66 159.86 90.54 159.86 203.38L159.86 563.16L66.00 547.52L66.00 203.38C66.00 62.59 159.86 0.02 285.00 0.02C365.16-2.70 439.14 42.91 472.71 115.76L472.71 0.02L566.57 15.66L566.57 563.16Z"  horiz-adv-x="641" vert-adv-y="1000"  />

      
      <glyph glyph-name="uni76" unicode="&#x76;" d="M568.91 556.09L554.89 563.05L326.66 103.53L100.25 563.08L23 507.97L273.28-0.06L350.54 55.02L335.35 85.87Z"  horiz-adv-x="588" vert-adv-y="1000"  />

      
      <glyph glyph-name="uni77" unicode="&#x77;" d="M881.76 556.09L867.75 563.05L639.51 103.53L492.43 402.10L568.91 556.09L554.89 563.05L483.73 419.75L413.13 563.08L335.85 507.97L431.32 314.21L326.66 103.53L100.27 563.08L23.00 507.97L273.28-0.06L350.56 55.02L335.35 85.87L440.01 296.57L586.14-0.06L663.41 55.02L648.21 85.87Z"  horiz-adv-x="901" vert-adv-y="1000"  />

      
      <glyph glyph-name="uni78" unicode="&#x78;" d="M506.41 67.95L303.93 309.25L504.02 547.68L492.02 557.74L293.74 321.43L90.96 563.08L30 489.72L232.48 248.41L32.40 9.99L44.39-0.08L242.68 236.25L445.45-5.40Z"  horiz-adv-x="538" vert-adv-y="1000"  />

      
      <glyph glyph-name="uni79" unicode="&#x79;" d="M523.40 563.08L335.00 101.95L100.17 562.89L23.00 507.78L264.75 33.33L324.38 75.86L242.81-123.85C213.61-193.61 131.37-160.87 99.04-134.53L84.44-165.67C123.24-197.28 227.86-202.52 257.41-129.50L538.08 557.51Z"  horiz-adv-x="560" vert-adv-y="1000"  />

      
      <glyph glyph-name="unifd" unicode="&#xfd;" d="M523.40 563.08L335.00 101.95L100.17 562.89L23.00 507.78L264.75 33.33L324.38 75.86L242.81-123.85C213.61-193.61 131.37-160.87 99.04-134.53L84.44-165.67C123.24-197.28 227.86-202.52 257.41-129.50L538.08 557.51Z"  horiz-adv-x="560" vert-adv-y="1000"  />

      
      <glyph glyph-name="uniff" unicode="&#xff;" d="M523.40 563.08L335.00 101.95L100.17 562.89L23.00 507.78L264.75 33.33L324.38 75.86L242.81-123.85C213.61-193.61 131.37-160.87 99.04-134.53L84.44-165.67C123.24-197.28 227.86-202.52 257.41-129.50L538.08 557.51Z"  horiz-adv-x="560" vert-adv-y="1000"  />

      
      <glyph glyph-name="uni7a" unicode="&#x7a;" d="M511.28 547.52L135.86 547.52L135.86 563.16L42.00 547.52L42.00 453.66L135.86 469.30L135.86 531.87L417.42 531.87L42.00 109.52L42.00 93.88C42.00 93.88 88.93 0.02 261.00 0.02C464.35 0.02 511.28 140.81 511.28 140.81L480.00 187.73C480.00 187.73 448.71 15.66 276.64 15.66C151.50 15.66 135.86 109.52 135.86 109.52L511.28 531.87Z"  horiz-adv-x="549" vert-adv-y="1000"  />

      
      <glyph glyph-name="uni7b" unicode="&#x7b;" d="M294.64-172.05C247.71-172.05 232.07-46.91 232.07 78.24C232.07 183.98 198.49 278.27 150.35 305.05C198.49 331.83 232.07 426.02 232.07 531.87C232.07 657.02 247.71 782.16 294.64 782.16L325.93 782.16L325.93 797.80L294.64 797.80C216.43 797.80 153.86 735.23 153.86 531.87C153.86 328.52 91.29 312.88 60 312.88L60 297.23C91.29 297.23 153.86 281.59 153.86 78.24C153.86-125.12 216.43-187.69 294.64-187.69L325.93-187.69L325.93-172.05Z"  horiz-adv-x="326" vert-adv-y="1000"  />

      
      <glyph glyph-name="uni7d" unicode="&#x7d;" d="M172.07 531.87C172.07 735.23 109.50 797.80 31.29 797.80L0 797.80L0 782.16L31.29 782.16C78.21 782.16 93.86 657.02 93.86 531.87C93.86 426.13 127.41 331.83 175.55 305.05C127.41 278.27 93.86 184.08 93.86 78.24C93.86-46.91 78.21-172.05 31.29-172.05L0-172.05L0-187.69L31.29-187.69C109.50-187.69 172.07-125.12 172.07 78.24C172.07 281.59 234.64 297.23 265.93 297.23L265.93 312.88C234.64 312.88 172.07 328.52 172.07 531.87Z"  horiz-adv-x="326" vert-adv-y="1000"  />

      
      <glyph glyph-name="unia2" unicode="&#xa2;" d="M552.97 78.24L537.32 109.52C502.71 55.51 444.84 20.79 380.90 15.66C287.04 15.66 161.90 93.88 161.90 281.59C161.90 406.73 193.18 547.52 318.32 547.52C388.57 545.61 453.35 509.15 491.44 450.09L521.70 514.42C479.63 542.10 431.10 558.39 380.85 561.70L380.85 688.30L287.00 672.66L287.00 557.63C161.11 535.31 68.00 443.42 68.00 281.59C68.00 119.76 161.11 27.87 287.00 5.55L287.00-125.12L380.85-109.48L380.85 2.36C444.54 9.80 504.51 36.24 552.97 78.24Z"  horiz-adv-x="613" vert-adv-y="1000"  />

      
      <glyph glyph-name="unia3" unicode="&#xa3;" d="M247.71 375.45L544.92 375.45L544.92 391.09L247.71 391.09C247.71 530.14 263.36 719.59 435.42 719.59C528.07 719.59 596.46 688.93 638.15 630.61L665.43 690.62C609.64 723.03 536.89 735.23 455.11 735.23C232.07 735.23 153.86 545.79 153.86 406.73L153.86 391.09L60.00 391.09L60.00 375.45L153.86 375.45L153.86 15.66L60.00 15.66L60.00 0.02L654.42 0.02L654.42 15.66L247.71 15.66Z"  horiz-adv-x="723" vert-adv-y="1000"  />

      
      <glyph glyph-name="unia5" unicode="&#xa5;" d="M420.72 265.99L686.98 727.16L673.42 734.98L407.62 274.56L139.34 735.23L66 675.06L304.25 265.95L92.55 265.95L92.55 250.31L313.37 250.31L327.19 226.55L327.19 125.16L92.55 125.16L92.55 109.52L327.19 109.52L327.19 0.02L421.05 15.66L421.05 109.52L655.69 109.52L655.69 125.16L421.05 125.16L421.05 250.31L655.69 250.31L655.69 265.95L421.05 265.95Z"  horiz-adv-x="750" vert-adv-y="1000"  />

      
      <glyph glyph-name="unia9" unicode="&#xa9;" d="M445.42 735.23C242.07 735.23 70 625.73 70 375.45C70 125.16 242.07 0.02 445.42 0.02C648.78 0.02 820.85 125.16 820.85 375.45C820.85 625.73 648.86 735.23 445.42 735.23ZM476.71 15.66C335.93 15.66 163.86 125.16 163.86 375.45C163.86 547.52 226.43 719.59 414.14 719.59C554.92 719.59 726.99 625.73 726.99 375.45C726.99 203.38 664.42 15.66 476.71 15.66ZM494.38 182.96C429.20 182.96 342.31 237.19 342.31 367.63C342.31 454.54 364.02 552.29 450.93 552.29C499.72 550.97 544.72 525.66 571.19 484.65L592.19 529.31C556.67 552.38 515.01 564.18 472.66 563.16C364.02 563.16 277.13 497.98 277.13 367.63C277.13 237.27 364.08 172.09 472.66 172.09C524.58 173.33 574.48 192.49 613.89 226.32L603.02 248.05C578.96 210.57 538.77 186.49 494.38 182.96Z"  horiz-adv-x="891" vert-adv-y="1000"  />

      
      <glyph glyph-name="uniab" unicode="&#xab;" d="M194.95 185.09L105.68 297.24L194.95 409.07L163.00 434.10L54 297.20L163.00 160.00ZM309.31 185.09L220.02 297.24L309.31 409.07L277.36 434.10L168.34 297.20L277.36 160.00Z"  horiz-adv-x="366" vert-adv-y="1000"  />

      
      <glyph glyph-name="uniae" unicode="&#xae;" d="M445.42 735.23C242.07 735.23 70 625.73 70 375.45C70 125.16 242.07 0.02 445.42 0.02C648.78 0.02 820.85 125.16 820.85 375.45C820.85 625.73 648.70 735.23 445.42 735.23ZM476.71 15.66C335.93 15.66 163.86 125.16 163.86 375.45C163.86 547.52 226.43 719.59 414.14 719.59C554.92 719.59 726.99 625.73 726.99 375.45C726.99 203.38 664.42 15.66 476.71 15.66ZM494.08 563.16C445.66 563.57 402.19 533.52 385.46 488.07L385.46 552.35L320.28 541.49L320.28 172.09L385.46 182.96L385.46 421.94C385.46 487.11 428.91 552.29 483.22 552.29C537.53 552.29 548.40 476.25 548.40 421.94L613.57 432.80C613.57 508.85 570.13 563.16 494.08 563.16Z"  horiz-adv-x="891" vert-adv-y="1000"  />

      
      <glyph glyph-name="unibb" unicode="&#xbb;" d="M197.97 297.13L88.95 434.04L57.00 409.01L146.27 297.18L57.00 185.03L88.95 160.00ZM312.31 297.13L203.29 434.04L171.34 409.01L260.61 297.18L171.34 185.03L203.29 160.00Z"  horiz-adv-x="367" vert-adv-y="1000"  />

      
      <glyph glyph-name="unic2" unicode="&#xc2;" d="M347.90 860.37C376.32 842.93 408.36 832.23 441.57 829.08L441.57 844.73C408.35 848.10 376.30 858.78 347.71 876.01C325.55 846.47 290.78 829.08 253.85 829.08L269.50 797.80C300.78 797.80 347.90 860.37 347.90 860.37ZM614.59-0.71L691.77 55.73L382.25 737.56L318.43 690.91L305.06 681.13L309.60 671.11L13.00 4.94L27.31-1.44L111.63 187.98C247.51 190.42 366.08 243.82 500.88 249.72ZM118.70 203.69L318.28 651.95L493.96 264.90C364.46 257.77 249.33 207.82 118.72 203.79Z"  horiz-adv-x="710" vert-adv-y="1000"  />

      
      <glyph glyph-name="unic7" unicode="&#xc7;" d="M699.91 106.98L672.79 156.43C631.92 72.19 547.40 17.86 453.79 15.64C313.01 15.64 140.94 125.14 140.94 375.43C140.94 547.50 203.51 719.56 391.22 719.56C483.48 718.60 570.35 675.98 627.57 603.60L654.69 666.90C586.19 713.13 505.05 737.00 422.42 735.23C219.07 735.23 47.00 625.73 47.00 375.45C47.00 125.16 219.07 0.02 422.42 0.02C435.15 0.02 447.70 0.61 460.13 1.59C404.57-23.44 375.50-56.46 375.50-125.12L422.42-156.41C422.42-78.19 443.89-13.72 535.59 14.00L535.59 14.16C597.86 29.41 654.71 61.52 699.91 106.98Z"  horiz-adv-x="726" vert-adv-y="1000"  />

      
      <glyph glyph-name="unica" unicode="&#xca;" d="M329.55 860.37C357.98 842.93 390.02 832.23 423.22 829.08L423.22 844.73C390.01 848.10 357.96 858.78 329.37 876.01C307.21 846.47 272.44 829.08 235.51 829.08L251.15 797.80C282.36 797.80 329.55 860.37 329.55 860.37ZM470.07 719.59L172.86 719.59L172.86 735.23L79.00 719.59L79.00 0.02L172.86 15.66L470.07 15.66L470.07 0.02L563.92 15.66L563.92 78.24L470.07 62.59L470.07 31.31L172.86 31.31L172.86 360.37C270.26 366.08 355.65 422.37 454.42 422.37L454.42 438.02C355.65 438.02 270.26 381.70 172.86 376.01L172.86 703.94L470.07 703.94L470.07 625.73L563.92 641.37L563.92 735.23Z"  horiz-adv-x="596" vert-adv-y="1000"  />

      
      <glyph glyph-name="unid4" unicode="&#xd4;" d="M391.33 860.37C419.75 842.93 451.79 832.23 485.00 829.08L485.00 844.73C451.78 848.10 419.73 858.78 391.14 876.01C368.98 846.47 334.21 829.08 297.28 829.08L312.93 797.80C344.13 797.80 391.33 860.37 391.33 860.37ZM422.42 735.23C219.07 735.23 47.00 625.73 47.00 375.45C47.00 125.16 219.07 0.02 422.42 0.02C625.78 0.02 797.85 125.16 797.85 375.45C797.85 625.73 625.70 735.23 422.42 735.23ZM453.71 15.66C312.93 15.66 140.86 125.16 140.86 375.45C140.86 547.52 203.43 719.59 391.14 719.59C531.92 719.59 703.99 625.73 703.99 375.45C703.99 203.38 641.42 15.66 453.71 15.66Z"  horiz-adv-x="845" vert-adv-y="1000"  />

      
      <glyph glyph-name="unid7" unicode="&#xd7;" d="M435.07 519.23L390.84 563.49L247.05 419.68L103.24 563.49L59.00 519.23L202.79 375.45L59.00 231.66L103.24 187.40L247.05 331.21L390.84 187.40L435.07 231.66L291.29 375.45Z"  horiz-adv-x="495" vert-adv-y="1000"  />

      
      <glyph glyph-name="unie2" unicode="&#xe2;" d="M314.11 688.22C342.54 670.78 374.58 660.08 407.78 656.93L407.78 672.66C374.57 676.03 342.52 686.71 313.93 703.94C291.77 674.40 257.00 657.02 220.07 657.02L235.71 625.73C267.00 625.65 314.11 688.22 314.11 688.22ZM517.28 547.52L517.28 502.47C463.55 543.68 397.26 565.12 329.57 563.16C173.14 563.16 48.00 469.30 48.00 281.59C48.00 93.88 173.14 0.02 329.57 0.02C397.26-1.95 463.56 19.49 517.28 60.72L517.28 0.02L611.14 15.66L611.14 563.16ZM360.85 15.66C267.00 15.66 141.86 93.88 141.86 281.59C141.86 406.73 173.14 547.52 298.28 547.52C381.68 543.40 460.21 507.02 517.28 446.07L517.28 101.70C481.48 50.12 423.59 18.28 360.85 15.66Z"  horiz-adv-x="686" vert-adv-y="1000"  />

      
      <glyph glyph-name="unie7" unicode="&#xe7;" d="M532.88 78.24L517.32 109.52C482.72 55.51 424.84 20.78 360.90 15.66C267.04 15.66 141.90 93.88 141.90 281.59C141.90 406.73 173.18 547.52 298.33 547.52C368.57 545.61 433.35 509.16 471.44 450.11L501.70 514.42C450.55 547.64 390.55 564.63 329.57 563.16C173.14 563.16 48 469.30 48 281.59C48 93.88 173.14 0.02 329.57 0.02C335.33 0.02 341.48 0.56 347.61 1.04C294.68-24.32 267-58.17 267-125.12L313.93-156.41C313.93-78.19 331.72-11.28 423.43 16.46L423.43 16.75C464.07 28.76 501.48 49.78 532.88 78.24Z"  horiz-adv-x="563" vert-adv-y="1000"  />

      
      <glyph glyph-name="uniea" unicode="&#xea;" d="M308.96 688.22C337.39 670.78 369.43 660.08 402.63 656.93L402.63 672.66C369.42 676.03 337.37 686.71 308.77 703.94C286.62 674.40 251.85 657.02 214.92 657.02L230.56 625.73C261.85 625.65 308.96 688.22 308.96 688.22ZM360.85 15.66C267.00 15.66 141.86 93.88 141.86 281.59L141.86 282.01C272.09 286.45 385.65 344.16 517.28 344.16L605.99 344.16C596.37 412.89 558.54 474.51 501.60 514.19L501.70 514.40C500.14 515.46 498.47 516.36 496.88 517.38C493.53 519.46 490.15 521.72 486.66 523.64C483.74 525.35 480.78 526.93 477.82 528.52C474.21 530.43 470.58 532.33 466.87 534.11C463.78 535.54 460.61 536.90 457.48 538.28C453.73 539.90 449.98 541.51 446.12 542.95C442.78 544.22 439.38 545.33 435.96 546.45C432.14 547.75 428.35 549.04 424.45 550.17C420.55 551.29 416.98 552.13 413.23 553.06C409.47 554.00 405.72 554.98 401.88 555.80C397.71 556.67 393.43 557.32 389.18 558.05C385.61 558.63 382.11 559.34 378.52 559.82C373.49 560.51 368.38 560.93 363.27 561.39C360.31 561.66 357.37 562.05 354.37 562.26C346.19 562.80 337.93 563.08 329.57 563.10C173.14 563.10 48.00 469.24 48.00 281.53C48.00 270.77 48.46 260.36 49.25 250.24C62.50 83.39 182.05-0.04 329.51-0.04C394.56-0.04 485.93 31.24 532.86 78.17L517.22 109.46C482.61 55.49 424.76 20.79 360.85 15.66ZM298.28 547.52C304.92 547.46 311.55 547.03 318.14 546.24C319.98 546.04 321.85 545.76 323.73 545.49C329.29 544.70 334.85 543.66 340.41 542.36C341.85 542.01 343.29 541.76 344.73 541.38C351.73 539.59 358.62 537.43 365.38 534.90C366.88 534.33 368.36 533.67 369.86 533.06C375.48 530.83 381.04 528.31 386.55 525.53C388.32 524.64 390.10 523.76 391.87 522.82C398.81 519.11 405.55 515.04 412.06 510.62C412.31 510.43 412.56 510.22 412.81 510.06C419.18 505.58 425.30 500.77 431.16 495.65C432.83 494.19 434.48 492.68 436.13 491.16C441.20 486.49 446.13 481.50 450.91 476.21C452.00 475.00 453.15 473.89 454.21 472.64C459.90 465.99 465.22 459.03 470.12 451.78C488.77 423.76 501.91 392.45 508.86 359.51C380.90 357.13 269.42 302.05 142.11 297.63C144.78 418.41 178.46 547.52 298.28 547.52Z"  horiz-adv-x="635" vert-adv-y="1000"  />

      
      <glyph glyph-name="unif4" unicode="&#xf4;" d="M329.57 563.08C173.14 563.08 48.00 469.22 48.00 281.51C48.00 93.79 173.14-0.06 329.57-0.06C486-0.06 611.14 93.79 611.14 281.51C611.14 469.22 486 563.08 329.57 563.08ZM360.85 15.58C267 15.58 141.86 93.79 141.86 281.51C141.86 406.65 173.14 547.43 298.28 547.43C392.14 547.43 517.28 469.22 517.28 281.51C517.28 156.37 486 15.66 360.85 15.66ZM308.98 688.22C337.40 670.78 369.44 660.08 402.63 656.93L402.63 672.66C369.42 676.03 337.37 686.72 308.77 703.94C286.62 674.40 251.85 657.02 214.92 657.02L230.56 625.73C261.85 625.65 308.98 688.22 308.98 688.22Z"  horiz-adv-x="660" vert-adv-y="1000"  />

      
      <glyph glyph-name="unif7" unicode="&#xf7;" d="M275.64 563.16C301.56 563.16 322.57 584.17 322.57 610.09C322.57 636.00 301.56 657.02 275.64 657.02C249.72 657.02 228.71 636.00 228.71 610.09C228.71 584.17 249.72 563.16 275.64 563.16ZM275.64 109.52C301.56 109.52 322.57 130.53 322.57 156.45C322.57 182.37 301.56 203.38 275.64 203.38C249.72 203.38 228.71 182.37 228.71 156.45C228.71 130.53 249.72 109.52 275.64 109.52ZM510.28 344.16L510.28 406.73L41.00 406.73L41.00 344.16Z"  horiz-adv-x="552" vert-adv-y="1000"  />

      
      <glyph glyph-name="uni0102" unicode="&#x0102;" d="M347.69 782.16C394.61 782.16 425.90 813.44 425.90 844.73L394.61 860.37C394.61 813.44 378.97 797.80 347.48 797.80C316.40 797.80 285.12 813.44 285.12 844.73L269.47 844.73C269.39 797.80 316.40 782.16 347.69 782.16ZM614.59-0.71L691.76 55.73L382.25 737.56L318.42 690.91L305.06 681.13L309.60 671.11L13.00 4.94L27.30-1.44L111.63 187.98C247.51 190.42 366.08 243.82 500.88 249.72ZM118.70 203.69L318.28 651.95L493.96 264.90C364.43 257.77 249.30 207.82 118.70 203.79Z"  horiz-adv-x="710" vert-adv-y="1000"  />

      
      <glyph glyph-name="uni0103" unicode="&#x0103;" d="M313.93 625.65C360.85 625.65 392.14 656.93 392.14 688.22L360.85 703.86C360.85 656.93 345.21 641.29 313.74 641.29C282.64 641.29 251.36 656.93 251.36 688.22L235.71 688.22C235.71 641.37 282.64 625.65 313.93 625.65ZM517.28 547.52L517.28 502.47C463.55 543.68 397.26 565.12 329.57 563.16C173.14 563.16 48 469.30 48 281.59C48 93.88 173.14 0.02 329.57 0.02C397.26-1.95 463.56 19.49 517.28 60.72L517.28 0.02L611.14 15.66L611.14 563.16ZM360.85 15.66C267 15.66 141.86 93.88 141.86 281.59C141.86 406.73 173.14 547.52 298.28 547.52C381.68 543.40 460.21 507.02 517.28 446.07L517.28 101.70C481.48 50.12 423.59 18.28 360.85 15.66Z"  horiz-adv-x="686" vert-adv-y="1000"  />

      
      <glyph glyph-name="uni0106" unicode="&#x0106;" d="M422.42 860.37L406.78 891.66C359.85 860.37 359.85 782.16 359.85 782.16L375.50 782.16C377.81 814.21 395.23 843.25 422.42 860.37ZM672.71 156.45C631.83 72.21 547.31 17.88 453.71 15.66C312.93 15.66 140.86 125.16 140.86 375.45C140.86 547.52 203.43 719.59 391.14 719.59C483.39 718.61 570.25 675.99 627.47 603.62L654.58 666.92C586.11 713.13 505.01 736.99 422.42 735.23C219.07 735.23 47 625.73 47 375.45C47 125.16 219.07 0.02 422.42 0.02C525.58-3.44 625.70 35.18 699.82 107.00Z"  horiz-adv-x="726" vert-adv-y="1000"  />

      
      <glyph glyph-name="uni0107" unicode="&#x0107;" d="M517.32 109.52C482.72 55.51 424.84 20.78 360.90 15.66C267.04 15.66 141.90 93.88 141.90 281.59C141.90 406.73 173.18 547.52 298.32 547.52C368.57 545.60 433.34 509.14 471.44 450.09L501.70 514.40C450.55 547.63 390.55 564.63 329.57 563.16C173.14 563.16 48.00 469.30 48.00 281.59C48.00 93.88 173.14 0.02 329.57 0.02C394.62 0.02 486.00 31.31 532.92 78.24ZM329.61 688.22L313.97 719.50C267.04 688.22 267.04 610.00 267.04 610.00L282.68 610.00C285.00 642.05 302.42 671.09 329.61 688.22Z"  horiz-adv-x="562" vert-adv-y="1000"  />

      
      <glyph glyph-name="uni010C" unicode="&#x010C;" d="M496.47 844.73L480.82 876.01C449.54 876.01 402.40 813.44 402.40 813.44C373.98 830.88 341.95 841.58 308.75 844.73L308.75 829.08C341.97 825.71 374.02 815.03 402.61 797.80C424.77 827.34 459.54 844.73 496.47 844.73ZM672.71 156.45C631.83 72.21 547.31 17.88 453.71 15.66C312.93 15.66 140.86 125.16 140.86 375.45C140.86 547.52 203.43 719.59 391.14 719.59C483.39 718.61 570.27 675.99 627.49 603.62L654.60 666.92C586.13 713.13 505.02 736.99 422.42 735.23C219.07 735.23 47.00 625.73 47.00 375.45C47.00 125.16 219.07 0.02 422.42 0.02C525.57-3.43 625.70 35.18 699.82 107.00Z"  horiz-adv-x="726" vert-adv-y="1000"  />

      
      <glyph glyph-name="uni010D" unicode="&#x010D;" d="M392.18 672.66L376.54 703.94C345.25 703.94 298.14 641.37 298.14 641.37C269.71 658.81 237.67 669.51 204.47 672.66L204.47 657.02C237.68 653.64 269.73 642.96 298.32 625.73C320.48 655.27 355.25 672.66 392.18 672.66ZM517.32 109.52C482.72 55.51 424.84 20.78 360.90 15.66C267.04 15.66 141.90 93.88 141.90 281.59C141.90 406.73 173.18 547.52 298.32 547.52C368.57 545.60 433.34 509.14 471.44 450.09L501.70 514.40C450.55 547.63 390.55 564.63 329.57 563.16C173.14 563.16 48.00 469.30 48.00 281.59C48.00 93.88 173.14 0.02 329.57 0.02C394.62 0.02 486.00 31.31 532.92 78.24Z"  horiz-adv-x="562" vert-adv-y="1000"  />

      
      <glyph glyph-name="uni0110" unicode="&#x0110;" d="M336.57 735.23L180.14 735.23L86.29 719.59L86.29 375.45L55.00 375.45L55.00 359.80L86.29 359.80L86.29 0.02L180.14 15.66C180.14 15.66 296.77 0.02 352.21 0.02C555.57 0.02 711.99 125.16 711.99 375.45C711.99 625.73 539.84 735.23 336.57 735.23ZM367.85 15.66C305.51 15.66 180.14 31.31 180.14 31.31L180.14 359.80L336.57 359.80L336.57 375.45L180.14 375.45L180.14 719.59L305.28 719.59C446.07 719.59 618.14 625.73 618.14 375.45C618.14 203.38 555.57 15.66 367.85 15.66Z"  horiz-adv-x="760" vert-adv-y="1000"  />

      
      <glyph glyph-name="uni0111" unicode="&#x0111;" d="M642.42 625.65L611.14 625.65L611.14 735.23L517.28 719.59L517.28 625.73L360.85 625.73L360.85 610.09L517.28 610.09L517.28 502.47C463.55 543.68 397.26 565.12 329.57 563.16C173.14 563.16 48.00 469.30 48.00 281.59C48.00 93.88 173.14 0.02 329.57 0.02C397.26-1.95 463.56 19.49 517.28 60.72L517.28 0.02L611.14 15.66L611.14 610.09L642.42 610.09ZM360.85 15.58C267 15.58 141.86 93.79 141.86 281.51C141.86 406.65 173.14 547.43 298.28 547.43C381.68 543.32 460.21 506.94 517.28 445.98L517.28 101.62C481.46 50.07 423.57 18.26 360.85 15.66Z"  horiz-adv-x="685" vert-adv-y="1000"  />

      
      <glyph glyph-name="uni0160" unicode="&#x0160;" d="M437.15 844.71L421.51 875.99C390.22 875.99 343.09 813.42 343.09 813.42C314.67 830.86 282.63 841.56 249.44 844.71L249.44 829.06C282.65 825.69 314.70 815.00 343.29 797.78C365.45 827.32 400.22 844.71 437.15 844.71ZM358.85 406.71C249.36 422.35 139.86 435.01 139.86 547.49C139.86 649.17 221.20 719.56 343.21 719.56C418.75 719.56 519.39 697.66 577.85 610.07L624.78 671.82C563.04 714.04 444.89 735.21 343.21 735.21C160.19 735.21 46 689.84 46 547.49C46 405.15 249.36 406.71 343.21 391.07C470.44 369.86 562.21 305.03 562.21 203.36C562.21 101.68 493.38 15.64 351.03 15.64C168.01 15.64 86.67 172.07 86.67 172.07L46.00 125.14C46.00 125.14 107.01-0.00 351.03-0.00C554.39-0.00 656.07 43.80 656.07 206.48C656.15 348.83 441.93 394.86 358.85 406.71Z"  horiz-adv-x="698" vert-adv-y="1000"  />

      
      <glyph glyph-name="uni0161" unicode="&#x0161;" d="M375.43 672.66L359.79 703.94C328.51 703.94 281.39 641.37 281.39 641.37C252.96 658.81 220.92 669.51 187.72 672.66L187.72 657.02C220.93 653.64 252.99 642.96 281.58 625.73C303.73 655.27 338.51 672.66 375.43 672.66ZM297.22 312.79C219.01 328.44 140.79 335.73 140.79 422.29C140.79 500.50 187.72 547.43 281.58 547.43C356.25 546.15 426.06 510.12 470.37 450.01L500.64 514.31C453.15 546.79 359.79 563.08 281.64 563.08C140.86 563.08 47.00 531.79 47.00 422.29C47.00 312.79 220.28 309.41 281.64 297.15C359.85 281.51 422.42 234.58 422.42 156.37C422.42 78.15 391.14 15.58 281.64 15.58C140.86 15.58 78.29 140.72 78.29 140.72L47 93.79C47 93.79 93.93-0.06 281.64-0.06C438.07-0.06 516.28 31.22 516.28 156.37C516.22 265.95 360.46 300.13 297.22 312.79Z"  horiz-adv-x="563" vert-adv-y="1000"  />

      
      <glyph glyph-name="uni017D" unicode="&#x017D;" d="M427.07 844.73L411.42 876.01C380.14 876.01 333.00 813.44 333.00 813.44C304.58 830.88 272.55 841.58 239.36 844.73L239.36 829.08C272.57 825.71 304.62 815.03 333.21 797.80C355.37 827.34 390.14 844.73 427.07 844.73ZM646.07 719.59L129.86 719.59L129.86 735.23L36.00 719.59L36.00 625.73L129.86 641.37L129.86 703.94L552.21 703.94L36.00 140.81L36.00 125.16C36.00 125.16 114.21 0.02 317.57 0.02C552.21 0.02 630.42 172.09 630.42 172.09L599.14 219.02C599.14 219.02 536.57 15.66 333.21 15.66C246.19 11.77 165.59 61.36 129.86 140.81L646.07 703.94Z"  horiz-adv-x="675" vert-adv-y="1000"  />

      
      <glyph glyph-name="uni017E" unicode="&#x017E;" d="M370.50 672.66L354.85 703.94C323.57 703.94 276.45 641.37 276.45 641.37C248.03 658.81 215.99 669.51 182.78 672.66L182.78 657.02C216.00 653.64 248.05 642.96 276.64 625.73C298.80 655.27 333.57 672.66 370.50 672.66ZM511.28 547.52L135.86 547.52L135.86 563.16L42.00 547.52L42.00 453.66L135.86 469.30L135.86 531.87L417.42 531.87L42.00 109.52L42.00 93.88C42.00 93.88 88.93 0.02 261.00 0.02C464.35 0.02 511.28 140.81 511.28 140.81L480.00 187.73C480.00 187.73 448.71 15.66 276.64 15.66C151.50 15.66 135.86 109.52 135.86 109.52L511.28 531.87Z"  horiz-adv-x="549" vert-adv-y="1000"  />

      
      <glyph glyph-name="uni01A0" unicode="&#x01A0;" d="M642.97 679.83C706.83 696.14 735.28 740.59 735.28 813.44L688.35 844.73C688.35 778.67 676.98 712.83 617.00 693.87C556.09 722.15 489.57 736.29 422.42 735.23C219.07 735.23 47.00 625.73 47.00 375.45C47.00 125.16 219.07 0.02 422.42 0.02C625.78 0.02 797.85 125.16 797.85 375.45C797.85 525.18 735.99 624.19 642.97 679.83ZM453.71 15.66C312.93 15.66 140.86 125.16 140.86 375.45C140.86 547.52 203.43 719.59 391.14 719.59C531.92 719.59 703.99 625.73 703.99 375.45C703.99 203.38 641.42 15.66 453.71 15.66Z"  horiz-adv-x="846" vert-adv-y="1000"  />

      
      <glyph glyph-name="uni01A1" unicode="&#x01A1;" d="M509.08 509.14C568.90 526.64 595.49 570.67 595.49 641.29L548.57 672.57C548.57 609.59 538.35 546.66 485.37 524.49C437.71 550.76 383.98 564.05 329.57 563.03C173.14 563.03 48.00 469.18 48.00 281.47C48.00 93.75 173.14-0.10 329.57-0.10C486-0.10 611.14 93.75 611.14 281.47C611.14 387.06 571.55 462.94 509.08 509.14ZM360.85 15.66C267 15.66 141.86 93.88 141.86 281.59C141.86 406.73 173.14 547.52 298.28 547.52C392.14 547.52 517.28 469.30 517.28 281.59C517.28 156.37 486 15.66 360.85 15.66Z"  horiz-adv-x="662" vert-adv-y="1000"  />

      
      <glyph glyph-name="uni01AF" unicode="&#x01AF;" d="M805.21 813.44L758.28 844.73C758.28 781.99 748.10 719.38 695.71 697.00L695.71 735.23L601.85 719.59L601.85 344.16C601.85 205.11 586.21 15.66 414.14 15.66C251.91 15.66 163.86 109.52 163.86 281.59L163.86 735.23L70.00 719.59L70.00 281.59C70.00 62.59 209.03 0.02 394.43 0.02C617.60 0.02 695.71 189.47 695.71 328.52L695.71 676.29C771.71 688.74 805.21 734.35 805.21 813.44Z"  horiz-adv-x="807" vert-adv-y="1000"  />

      
      <glyph glyph-name="uni01B0" unicode="&#x01B0;" d="M676.07 641.37L629.14 672.66C629.14 609.92 618.98 547.29 566.57 524.91L566.57 563.16L472.71 547.52L472.71 203.38C472.71 109.52 410.14 15.66 300.64 15.66C191.14 15.66 159.86 90.54 159.86 203.38L159.86 563.16L66 547.52L66 203.38C66 62.59 159.86 0.02 285 0.02C365.16-2.70 439.14 42.91 472.71 115.76L472.71 0.02L566.57 15.66L566.57 504.11C642.57 516.56 676.07 562.12 676.07 641.37Z"  horiz-adv-x="680" vert-adv-y="1000"  />

      
      <glyph glyph-name="uni0401" unicode="&#x0401;" d="M454.42 766.49C480.34 766.49 501.35 787.50 501.35 813.42C501.35 839.34 480.34 860.35 454.42 860.35C428.51 860.35 407.50 839.34 407.50 813.42C407.50 787.50 428.51 766.49 454.42 766.49ZM204.14 766.49C230.06 766.49 251.07 787.50 251.07 813.42C251.07 839.34 230.06 860.35 204.14 860.35C178.22 860.35 157.21 839.34 157.21 813.42C157.21 787.50 178.22 766.49 204.14 766.49ZM470.07 719.56L172.86 719.56L172.86 735.23L79 719.59L79 0.02L172.86 15.66L470.07 15.66L470.07 0.02L563.92 15.66L563.92 78.24L470.07 62.59L470.07 31.31L172.86 31.31L172.86 360.35C270.26 366.06 355.67 422.35 454.42 422.35L454.42 438.00C355.67 438.00 270.26 381.68 172.86 375.99L172.86 703.94L470.07 703.94L470.07 625.73L563.92 641.37L563.92 735.23Z"  horiz-adv-x="596" vert-adv-y="1000"  />

      
      <glyph glyph-name="uni0402" unicode="&#x0402;" d="M515.57 438C462.39 436.93 409.67 427.94 359.14 411.32L359.14 703.94L515.57 703.94L515.57 625.73L609.42 641.37L609.42 735.23L515.57 719.59L359.14 719.59L359.14 735.23L265.28 719.59L108.86 719.59L108.86 735.23L15.00 719.59L15.00 625.73L108.86 641.37L108.86 703.94L265.28 703.94L265.28 0.02L359.14 15.66L359.14 395.68C409.67 412.30 462.39 421.29 515.57 422.35C608.53 415.14 687.64 343.10 687.64 219.00C687.64 127.77 631.32 32.98 468.64 17.81L468.64 1.36C683.70 10.87 781.49 73.21 781.49 219.00C781.43 378.26 654.89 438.00 515.57 438.00Z"  horiz-adv-x="815" vert-adv-y="1000"  />

      
      <glyph glyph-name="uni0404" unicode="&#x0404;" d="M391.16 719.56C491.91 715.56 586.58 670.31 652.98 594.42L680.09 642.08C615.66 687.61 509.06 735.21 422.42 735.21C219.07 735.21 47 625.71 47 375.43C47 125.14 219.07 0.00 422.42 0.00C530.88 0.00 605.97 31.29 652.96 78.21L625.84 127.67C621.67 125.14 566.38 15.64 453.77 15.64C315.99 15.64 148.66 120.91 141.59 360.01C291.05 362.37 420.36 422.35 570.65 422.35L570.65 438.00C420.13 438.00 290.67 377.82 141.00 375.63C140.92 547.64 203.51 719.56 391.16 719.56Z"  horiz-adv-x="709" vert-adv-y="1000"  />

      
      <glyph glyph-name="uni0405" unicode="&#x0405;" d="M358.85 406.71C249.36 422.35 139.86 435.01 139.86 547.50C139.86 649.17 221.20 719.56 343.21 719.56C418.75 719.56 519.39 697.69 577.85 610.07L624.78 671.82C563.06 714.04 444.89 735.21 343.21 735.21C160.19 735.21 46 689.84 46 547.50C46 405.15 249.36 406.71 343.21 391.07C470.44 369.86 562.21 305.03 562.21 203.36C562.21 101.68 493.38 15.64 351.03 15.64C168.01 15.64 86.67 172.07 86.67 172.07L46.00 125.14C46.00 125.14 107.01 0.00 351.03 0.00C554.39 0.00 656.07 43.80 656.07 206.48C656.07 348.83 441.86 394.86 358.85 406.71Z"  horiz-adv-x="698" vert-adv-y="1000"  />

      
      <glyph glyph-name="uni0406" unicode="&#x0406;" d="M79 719.56L79 0.00L172.86 15.64L172.86 735.21Z"  horiz-adv-x="252" vert-adv-y="1000"  />

      
      <glyph glyph-name="uni0407" unicode="&#x0407;" d="M189.07 782.14C214.99 782.14 236.00 803.15 236.00 829.06C236.00 854.98 214.99 875.99 189.07 875.99C163.15 875.99 142.14 854.98 142.14 829.06C142.14 803.15 163.15 782.14 189.07 782.14ZM63.93 782.14C89.85 782.14 110.86 803.15 110.86 829.06C110.86 854.98 89.85 875.99 63.93 875.99C38.01 875.99 17.00 854.98 17.00 829.06C17.00 803.15 38.01 782.14 63.93 782.14ZM79.57 0.00L173.43 15.64L173.43 735.21L79.57 719.56Z"  horiz-adv-x="253" vert-adv-y="1000"  />

      
      <glyph glyph-name="uni0408" unicode="&#x0408;" d="M170.43 719.56L170.43 187.71C170.43 78.21 154.78 15.64 92.21 15.64C60.93 15.64 45.29 62.57 45.29 62.57L14 31.29C35.42 11.72 63.21 0.61 92.21 0.00C201.71 0.00 264.28 62.57 264.28 203.36L264.28 735.23Z"  horiz-adv-x="340" vert-adv-y="1000"  />

      
      <glyph glyph-name="uni0409" unicode="&#x0409;" d="M753.85 438.00C700.67 436.94 647.94 427.94 597.42 411.30L597.42 735.23L503.57 719.59L175.07 719.59C175.07 719.59 143.78 531.87 143.78 203.38C143.78 62.59 81.21 15.66 3 15.66L18.64 0.02C96.86 0.02 159.43 62.59 159.43 187.73C159.43 485.84 180.87 654.68 188.23 703.94L503.57 703.94L503.57 0.02L597.42 15.66C633.31 6.82 669.99 1.58 706.92 0.02C910.28 0.02 1019.78 59.76 1019.78 219.02C1019.78 378.28 893.32 438.00 753.85 438.00ZM706.92 15.64C669.99 17.20 633.31 22.44 597.42 31.29L597.42 395.66C647.94 412.30 700.67 421.30 753.85 422.35C846.79 415.14 925.92 343.10 925.92 219.00C925.92 119.47 878.99 15.66 706.92 15.66Z"  horiz-adv-x="1054" vert-adv-y="1000"  />

      
      <glyph glyph-name="uni040A" unicode="&#x040A;" d="M845.49 438.00C831.16 437.99 816.84 437.26 802.59 435.81C764.07 431.18 726.07 422.98 689.07 411.32L689.07 735.23L595.21 719.59L595.21 438.02C447.40 438.02 320.69 375.45 172.86 375.45L172.86 735.23L79.00 719.59L79.00 0.02L172.86 15.66L172.86 359.80C320.69 359.80 447.40 422.37 595.21 422.37L595.21 0.02L689.07 15.66C724.95 6.82 761.63 1.58 798.56 0.02C1001.92 0.02 1111.42 59.76 1111.42 219.02C1111.42 378.28 984.96 438.00 845.49 438.00ZM798.56 15.64C761.63 17.20 724.95 22.44 689.07 31.29L689.07 395.66C726.06 407.34 764.07 415.54 802.59 420.16C816.84 421.62 831.16 422.35 845.49 422.35C938.43 415.14 1017.56 343.10 1017.56 219.00C1017.56 119.47 970.63 15.66 798.56 15.66Z"  horiz-adv-x="1146" vert-adv-y="1000"  />

      
      <glyph glyph-name="uni040B" unicode="&#x040B;" d="M515.57 438.00C462.39 436.93 409.66 427.94 359.14 411.32L359.14 703.94L515.57 703.94L515.57 625.73L609.42 641.37L609.42 735.23L515.57 719.59L359.14 719.59L359.14 735.23L265.28 719.59L108.86 719.59L108.86 735.23L15.00 719.59L15.00 625.73L108.86 641.37L108.86 703.94L265.28 703.94L265.28 0.02L359.14 15.66L359.14 395.68C409.66 412.30 462.39 421.29 515.57 422.35C608.53 415.14 687.64 343.10 687.64 219.00L687.64 0.00L781.49 15.64L781.49 234.66C781.43 375.43 650.24 438.00 515.57 438.00Z"  horiz-adv-x="823" vert-adv-y="1000"  />

      
      <glyph glyph-name="uni040E" unicode="&#x040E;" d="M423.21 844.71L407.57 875.99C376.28 875.99 329.17 813.42 329.17 813.42C300.74 830.86 268.70 841.56 235.50 844.71L235.50 829.06C268.71 825.69 300.76 815.01 329.35 797.78C351.51 827.32 386.28 844.71 423.21 844.71ZM628.71 734.96L362.70 274.29L94.59 735.23L21.00 675.45L292.14 209.45L354.57 260.15L244.36 69.27C208.78-2.40 129.90 26.84 97.57 53.21L82.97 22.07C110.82 2.12 145.86-4.98 179.28 2.54C212.70 10.06 241.32 31.49 257.94 61.45L642.27 727.16Z"  horiz-adv-x="653" vert-adv-y="1000"  />

      
      <glyph glyph-name="uni040F" unicode="&#x040F;" d="M596.15 719.56L596.15 31.29L173.86 31.29L173.86 735.23L80.00 719.59L80.00 0.02L173.86 15.66L413.54 15.66C367.01-5.19 345.93-46.78 345.93-109.48L392.85-140.76C392.85-62.55 408.50 15.66 502.35 15.66L690.07 15.66L690.07 735.23Z"  horiz-adv-x="771" vert-adv-y="1000"  />

      
      <glyph glyph-name="uni0410" unicode="&#x0410;" d="M615.52-3.11L692.69 53.33L383.25 735.23L319.43 688.57L306.06 678.79L310.61 668.78L14 2.59L28.29-3.67L112.64 185.75C248.52 188.19 367.09 241.59 501.89 247.49ZM119.64 201.40L319.20 649.63L494.90 262.61C365.38 255.41 250.25 205.46 119.64 201.44Z"  horiz-adv-x="711" vert-adv-y="1000"  />

      
      <glyph glyph-name="uni0411" unicode="&#x0411;" d="M485.71 438.00C364.03 438.00 287.21 385.35 172.86 376.74L172.86 719.56L595.21 719.56L595.21 625.71L689.07 641.35L689.07 735.23L172.86 735.23L79 719.59L79 0.02L172.86 15.66C172.86 15.66 296.58 0.02 376.21 0.02C635.00 0.02 751.64 59.76 751.64 219.02C751.64 378.28 625.08 438.00 485.71 438.00ZM391.85 15.64C312.22 15.64 172.86 31.29 172.86 31.29L172.86 361.10C287.21 369.71 364.03 422.35 485.71 422.35C578.65 415.14 657.78 343.10 657.78 219.00C657.78 119.47 590.91 15.66 391.85 15.66Z"  horiz-adv-x="794" vert-adv-y="1000"  />

      
      <glyph glyph-name="uni0412" unicode="&#x0412;" d="M586.07 426.40C637.90 437.98 690.07 477.12 690.07 574.32C690.07 695.00 562.23 735.21 439.78 735.21L173.86 735.21L80.00 719.56L80.00 0L173.86 15.64C173.86 15.64 297.58 0 377.21 0C636.00 0 752.64 59.74 752.64 219C752.64 338.95 680.93 402.31 586.07 426.40ZM424.14 719.56C504.58 719.56 596.21 679.35 596.21 578.78C596.21 498.34 551.51 438.00 471.07 438.00L473.05 437.60C359.23 433.85 283.83 385.02 173.86 376.74L173.86 719.56ZM392.85 15.64C313.22 15.64 173.86 31.29 173.86 31.29L173.86 361.10C288.21 369.71 365.03 422.35 486.71 422.35C579.65 415.14 658.78 343.10 658.78 219.00C658.78 119.47 591.91 15.66 392.85 15.66Z"  horiz-adv-x="797" vert-adv-y="1000"  />

      
      <glyph glyph-name="uni0413" unicode="&#x0413;" d="M470.07 719.56L79 719.56L79 0.00L172.86 15.64L172.86 703.92L470.07 703.92L470.07 625.71L563.92 641.35L563.92 735.21Z"  horiz-adv-x="578" vert-adv-y="1000"  />

      
      <glyph glyph-name="uni0414" unicode="&#x0414;" d="M677.64 11.50L677.64 731.06L583.78 715.42L255.28 715.42C255.28 715.42 224.00 527.71 224.00 199.21C224.00 58.43 161.43 11.50 83.21 11.50L5.00 11.50L5.00-98.00L98.86-82.36L98.86-4.14L661.99-4.14L661.99-98.00L755.85-82.36L755.85 11.50ZM161.16 11.50C207.75 37.11 239.64 94.34 239.64 183.57C239.64 481.68 261.08 650.51 268.44 699.78L583.78 699.78L583.78 11.50Z"  horiz-adv-x="785" vert-adv-y="1000"  />

      
      <glyph glyph-name="uni0415" unicode="&#x0415;" d="M470.07 719.56L172.86 719.56L172.86 735.23L79.00 719.59L79.00 0.02L172.86 15.66L470.07 15.66L470.07 0.02L563.92 15.66L563.92 78.24L470.07 62.59L470.07 31.31L172.86 31.31L172.86 360.35C270.26 366.06 355.67 422.35 454.42 422.35L454.42 438.00C355.67 438.00 270.26 381.68 172.86 375.99L172.86 703.94L470.07 703.94L470.07 625.73L563.92 641.37L563.92 735.23Z"  horiz-adv-x="596" vert-adv-y="1000"  />

      
      <glyph glyph-name="uni0416" unicode="&#x0416;" d="M686.76 421.98L1045.78 723.24L1035.72 735.21L581.63 354.17L581.63 735.23L487.77 719.59L487.77 358.76L39.05 735.23L29.00 723.26L388.01 422.00C145.80 414.07 39.53 154.30 39.53 15.66L102.10 0.02C102.10 108.21 178.52 399.37 406.61 406.40L487.79 338.30L487.79 0.02L581.65 15.66L581.65 333.75L668.20 406.38C896.27 399.35 972.71 108.12 972.71 0.00L1035.28 15.64C1035.26 154.28 928.98 414.03 686.76 421.98Z"  horiz-adv-x="1075" vert-adv-y="1000"  />

      
      <glyph glyph-name="uni0417" unicode="&#x0417;" d="M481.02 434.89C531.98 448.17 582.14 486.45 582.14 578.80C582.14 701.34 443.27 735.23 284.93 735.23C136.84 735.23 80.26 694.39 80.26 694.39L100.70 653.55C143.95 697.08 203.16 720.95 264.51 719.59C381.99 719.59 488.28 680.92 488.28 578.80C488.28 497.13 432.49 453.66 350.81 453.66L222.36 453.66L222.36 438.02L330.37 438.02C432.57 438.02 519.57 369.06 519.57 234.66C519.57 132.46 443.27 15.66 284.93 15.66C192.41 18.49 104.52 56.76 39.42 122.56L19.00 81.72C19.00 81.72 96.17 0.02 284.93 0.02C463.69 0.02 629.07 71.29 629.07 234.66C629.07 345.93 566.22 407.15 481.02 434.89Z"  horiz-adv-x="677" vert-adv-y="1000"  />

      
      <glyph glyph-name="uni0418" unicode="&#x0418;" d="M596.21 719.56L596.21 587L173.86 43.86L173.86 735.21L80 719.56L80 0.00L173.86 15.64L173.86 18.38L596.21 561.51L596.21 0.00L690.07 15.64L690.07 735.21Z"  horiz-adv-x="771" vert-adv-y="1000"  />

      
      <glyph glyph-name="uni0419" unicode="&#x0419;" d="M502.35 891.66C502.35 891.66 439.78 844.73 267.71 844.73L267.71 813.44C351.44 811.37 435.18 816.61 518 829.08ZM596.21 719.56L596.21 587.00L173.86 43.86L173.86 735.21L80 719.56L80 0.00L173.86 15.64L173.86 18.38L596.21 561.51L596.21 0.00L690.07 15.64L690.07 735.21Z"  horiz-adv-x="771" vert-adv-y="1000"  />

      
      <glyph glyph-name="uni041A" unicode="&#x041A;" d="M278.00 421.98L637.03 723.24L626.95 735.21L172.86 354.17L172.86 735.23L79.00 719.59L79.00 0.02L172.86 15.66L172.86 333.75L259.41 406.38C487.48 399.35 563.92 108.12 563.92 0.00L626.49 15.64C626.58 154.28 520.31 414.03 278.00 421.98Z"  horiz-adv-x="667" vert-adv-y="1000"  />

      
      <glyph glyph-name="uni041B" unicode="&#x041B;" d="M503.57 719.56L175.07 719.56C175.07 719.56 143.78 531.85 143.78 203.36C143.78 62.57 81.21 15.64 3 15.64L18.64 0.00C96.86 0.00 159.43 62.57 159.43 187.71C159.43 485.82 180.87 654.66 188.23 703.92L503.57 703.92L503.57 0.00L597.42 15.64L597.42 735.23Z"  horiz-adv-x="678" vert-adv-y="1000"  />

      
      <glyph glyph-name="uni041C" unicode="&#x041C;" d="M721.35 719.56L721.35 715.56L448.06 242.23L173.86 717.17L173.86 735.21L80.00 719.56L80.00 0L173.86 15.64L173.86 654.60L439.64 194.24L466.73 209.88L457.09 226.59L721.35 684.28L721.35 0.00L815.21 15.64L815.21 735.21Z"  horiz-adv-x="896" vert-adv-y="1000"  />

      
      <glyph glyph-name="uni041D" unicode="&#x041D;" d="M595.21 719.56L595.21 438.00C447.40 438.00 320.69 375.43 172.86 375.43L172.86 735.23L79 719.59L79 0.02L172.86 15.66L172.86 359.80C320.69 359.80 447.40 422.37 595.21 422.37L595.21 0.02L689.07 15.66L689.07 735.23Z"  horiz-adv-x="769" vert-adv-y="1000"  />

      
      <glyph glyph-name="uni041E" unicode="&#x041E;" d="M422.42 735.23C219.07 735.23 47 625.73 47 375.45C47 125.16 219.07 0.02 422.42 0.02C625.78 0.02 797.85 125.16 797.85 375.45C797.85 625.73 625.78 735.23 422.42 735.23ZM453.71 15.66C312.93 15.66 140.86 125.16 140.86 375.45C140.86 547.52 203.43 719.59 391.14 719.59C531.92 719.59 703.99 625.73 703.99 375.45C703.99 203.38 641.42 15.66 453.71 15.66Z"  horiz-adv-x="845" vert-adv-y="1000"  />

      
      <glyph glyph-name="uni041F" unicode="&#x041F;" d="M596.21 719.56L173.86 719.56L173.86 735.21L80 719.56L80 0L173.86 15.64L173.86 703.92L596.21 703.92L596.21 0L690.07 15.64L690.07 735.21Z"  horiz-adv-x="771" vert-adv-y="1000"  />

      
      <glyph glyph-name="uni0420" unicode="&#x0420;" d="M407.50 735.23L172.86 735.23L79.00 719.59L79.00 0.02L172.86 15.66L172.86 359.80L423.14 359.80C532.64 359.80 657.78 422.37 657.78 547.52C657.78 672.66 529.95 735.23 407.50 735.23ZM423.14 375.45L172.86 375.45L172.86 719.59L391.85 719.59C437.52 719.67 481.33 701.57 513.62 669.29C545.91 637.00 564.01 593.18 563.92 547.52C563.92 467.05 532.64 375.43 423.14 375.43Z"  horiz-adv-x="687" vert-adv-y="1000"  />

      
      <glyph glyph-name="uni0421" unicode="&#x0421;" d="M672.71 156.43C631.84 72.19 547.31 17.85 453.71 15.64C312.93 15.64 140.86 125.14 140.86 375.43C140.86 547.50 203.43 719.56 391.14 719.56C483.40 718.61 570.28 675.98 627.49 603.60L654.60 666.90C586.13 713.12 505.02 736.99 422.42 735.23C219.07 735.23 47 625.73 47 375.45C47 125.16 219.07 0.02 422.42 0.02C525.57-3.43 625.70 35.18 699.82 107.00Z"  horiz-adv-x="726" vert-adv-y="1000"  />

      
      <glyph glyph-name="uni0422" unicode="&#x0422;" d="M515.57 719.56L359.14 719.56L359.14 735.21L265.28 719.56L108.86 719.56L108.86 735.21L15.00 719.56L15.00 625.71L108.86 641.35L108.86 703.92L265.28 703.92L265.28 0.00L359.14 15.64L359.14 703.92L515.57 703.92L515.57 625.71L609.42 641.35L609.42 735.21Z"  horiz-adv-x="624" vert-adv-y="1000"  />

      
      <glyph glyph-name="uni0423" unicode="&#x0423;" d="M628.67 734.96L362.70 274.29L94.58 735.23L21 675.45L292.14 209.45L354.54 260.15L244.36 69.27C208.77-2.40 129.89 26.84 97.57 53.21L82.97 22.07C110.81 2.12 145.85-4.98 179.27 2.54C212.68 10.06 241.30 31.49 257.91 61.45L642.26 727.16Z"  horiz-adv-x="653" vert-adv-y="1000"  />

      
      <glyph glyph-name="uni0424" unicode="&#x0424;" d="M697.99 735.23C649.33 735.89 601.16 725.38 557.21 704.49L557.21 735.23L463.35 719.59L463.35 704.49C419.40 725.38 371.23 735.90 322.57 735.23C166.14 735.23 41 641.37 41 453.66C41 265.95 166.14 172.09 322.57 172.09C371.23 171.42 419.40 181.94 463.35 202.83L463.35 0.02L557.21 15.66L557.21 202.83C601.16 181.94 649.33 171.43 697.99 172.09C854.42 172.09 979.56 265.95 979.56 453.66C979.56 641.37 854.42 735.23 697.99 735.23ZM353.85 187.73C260.00 187.73 134.86 265.95 134.86 453.66C134.86 578.80 166.14 719.59 291.28 719.59C353.25 716.59 413.02 695.70 463.35 659.43L463.35 226.86C432.19 202.06 393.68 188.29 353.85 187.71ZM729.28 187.73C667.31 190.74 607.54 211.64 557.21 247.91L557.21 680.48C588.38 705.26 626.89 719.01 666.71 719.59C760.56 719.59 885.71 641.37 885.71 453.66C885.71 328.52 854.42 187.71 729.28 187.71Z"  horiz-adv-x="1021" vert-adv-y="1000"  />

      
      <glyph glyph-name="uni0425" unicode="&#x0425;" d="M656.24 76.15L376.13 409.99L640.60 725.15L628.62 735.21L365.93 422.15L103.34 735.08L45.99 657.41L304.68 349.15L21.00 11.08L32.99 1.02L314.87 336.97L598.90-1.52Z"  horiz-adv-x="681" vert-adv-y="1000"  />

      
      <glyph glyph-name="uni0426" unicode="&#x0426;" d="M690.07 31.29L690.07 735.23L596.21 719.59L596.21 31.31L173.86 31.31L173.86 735.23L80 719.59L80 0.02L173.86 15.66L726.40 15.66C679.87-5.19 658.78-46.78 658.78-109.48L705.71-140.76C705.71-62.55 721.35 15.66 815.21 15.66L815.21 31.31Z"  horiz-adv-x="829" vert-adv-y="1000"  />

      
      </font>
</defs>
</svg>
